<svg version="1.2" xmlns="http://www.w3.org/2000/svg" viewBox="0 0 398 233" width="398" height="233"><defs><linearGradient id="P" gradientUnits="userSpaceOnUse"/><linearGradient id="g1" x1="267.7" y1="80.9" x2="267.7" y2="260" href="#P"><stop stop-color="#b9c3c4" stop-opacity="0"/><stop offset="1" stop-color="#fee851"/></linearGradient><linearGradient id="g2" x1="94.4" y1="69" x2="94.4" y2="81" href="#P"><stop stop-color="#b9c3c4" stop-opacity="0"/><stop offset="1" stop-color="#b9c3c4"/></linearGradient><linearGradient id="g3" x1="386.6" y1="69" x2="386.6" y2="81" href="#P"><stop stop-color="#b9c3c4" stop-opacity="0"/><stop offset="1" stop-color="#b9c3c4"/></linearGradient></defs><style>.a{fill:url(#g1)}.b{fill:#ffd371}.c{fill:#ffc552}.d{fill:#ffeda1}.e{fill:#ffb32b}.f{fill:#ffa20d}.g{fill:#ffb32c}.h{fill:#e29417}.i{fill:none;stroke:#e29417;stroke-linecap:round;stroke-width:2}.j{fill:#002e55}.k{fill:url(#g2)}.l{fill:url(#g3)}</style><path class="a" d="m265.7 73.3v68.5 72.5 10c0 4.8-4 8.8-8.9 8.8-4.8 0-8.8-4-8.8-8.8v-10-39.6c0-2.6-1-4.8-2.7-6.5-1.6-1.7-3.9-2.7-6.5-2.7-5 0-9.1 4.1-9.1 9.2v39.6 2.2c0 4.7-3.8 8.5-8.5 8.5-4 0-7.2-2.7-8.2-6.3q-0.3-1.1-0.3-2.2v-2.2-16.4c-0.5-1.9-1.4-3.6-2.8-4.9-1.8-1.9-4.4-3-7.3-3-5.7 0-10.4 4.6-10.4 10.4v13.9 8.4c0 5.7-4.6 10.4-10.4 10.4-5.7 0-10.3-4.7-10.3-10.4v-8.4-40.8-5.3c0-2.9-1.2-5.4-3-7.3-1.9-1.8-4.4-3-7.3-3-5.6 0-10.2 4.6-10.2 10.3v12.4c0 5.2-4.2 9.4-9.3 9.4-5.2 0-9.4-4.2-9.4-9.4v-51.3-56z"/><circle class="b" cx="199" cy="73.3" r="66.7"/><circle class="b" cx="199" cy="73.3" r="66.7"/><path class="c" d="m265.7 73.3c0 36.8-29.9 66.7-66.7 66.7-22.5 0-42.4-11.2-54.5-28.3 10.9 7.7 24.1 12.2 38.4 12.2 36.8 0 66.7-29.8 66.7-66.7 0-14.3-4.5-27.5-12.2-38.4 17.1 12.1 28.3 32 28.3 54.5z"/><path class="b" d="m186.7 3.9q0.1-0.3 0.2-0.6c0.6-1.2 2-1.6 3.3-1.7 5.1-0.4 10.1-0.8 15.2-0.8 1.3 0.1 2.7 0.4 3.5 1.4 0.7 0.8 0.8 1.9 0.6 3-0.2 1.4-0.9 3-1.8 4.1-0.3 0.5-0.7 0.9-1.2 1.1-0.5 0.2-0.9 0.2-1.4 0.2q-4.7 0.3-9.4 0.1c-3-0.1-10.3-2.4-9-6.8z"/><path class="b" d="m137.2 60.8q-1.3 5.5-1.9 11.2c-0.1 1.9-0.5 4.1-2.1 4.9-1.2 0.6-2.7 0.2-3.7-0.7-1-0.8-1.5-2.1-1.9-3.3-1.4-4.9-0.2-10.2 1.9-14.8 0.2-0.6 0.5-1.1 1-1.4 0.4-0.2 0.9-0.2 1.3-0.2 3.6 0 6.5-0.3 5.4 4.3z"/><path class="b" d="m265.6 51.8c0.3-0.1 0.6-0.3 1-0.3 0.4 0.1 0.7 0.5 1 0.8 1.7 2.5 2 5.6 2.2 8.6q0.2 3.1 0.5 6.2c0.1 1.2 0.1 2.5-0.3 3.6-0.4 1.2-1.5 2.2-2.7 2.2-1.7-0.1-2.7-1.9-3.3-3.5-1.2-3.6-2-7.3-2.6-11.1-0.5-3.6 1-4.8 4.2-6.5z"/><g style="opacity:.5"><path class="d" d="m223.1 23.6c11.9 13.1 10.6 35.4 3.7 50.5-7.9 17.4-24.6 30-43 34.2-9.1 2-19.5 0.7-26.4-5.6-7.2-6.7-9.1-17.5-8.8-27.4 0.8-29.9 24-65.2 58-60.2 6.3 1 12.1 3.8 16.5 8.5z"/></g><path class="d" d="m209.9 39c7.1 7.8 6.4 21.2 2.3 30.2-4.8 10.5-14.8 18-25.8 20.5-5.5 1.2-11.7 0.4-15.8-3.4-4.3-4-5.5-10.4-5.3-16.4 0.5-17.9 14.4-39 34.8-36 3.7 0.5 7.2 2.2 9.8 5.1z"/><path class="e" d="m249.9 98.2c-2 3.6-6.5 5.6-10.5 4.7-4-0.9-7.2-4.7-7.4-8.8-0.1-2 0.4-3.9 1.2-5.7 0.4-1.2 1-2.3 1.9-3.2 1.3-1.2 3.1-1.7 4.9-1.9 8.5-1 14 7.3 9.9 14.9z"/><path class="f" d="m251.2 94.5c-0.8-5-5.3-8.8-11.2-8.2-1.8 0.2-3.6 0.8-4.9 2-0.9 0.9-1.5 2-1.9 3.2-0.5 1.2-0.9 2.4-1.1 3.6q0-0.5-0.1-1c-0.1-2 0.4-3.9 1.2-5.7 0.4-1.2 1-2.3 1.9-3.2 1.3-1.2 3.1-1.7 4.9-1.9 7.1-0.8 12.1 4.9 11.2 11.2z"/><path class="g" d="m178.6 107.4c-1.7 3.1-5.6 4.8-9 4.1-3.4-0.8-6.1-4.1-6.3-7.6-0.1-1.6 0.4-3.3 1-4.8 0.4-1 0.9-2 1.7-2.8 1.1-1 2.6-1.5 4.1-1.6 7.3-0.9 12 6.3 8.5 12.7z"/><path class="f" d="m179.6 104.5c-0.8-4.1-4.5-7.2-9.5-6.6-1.5 0.1-3 0.6-4.1 1.6-0.8 0.8-1.3 1.8-1.7 2.8-0.4 0.9-0.7 1.8-0.8 2.7q-0.2-0.5-0.2-1.1c-0.1-1.6 0.4-3.3 1-4.8 0.4-1 0.9-2 1.7-2.8 1.1-1 2.6-1.5 4.1-1.6 6.2-0.7 10.5 4.3 9.5 9.8z"/><path class="g" d="m148.9 71.3c-1 2-3.4 3.1-5.6 2.6-2.1-0.5-3.8-2.5-3.9-4.7-0.1-1.1 0.2-2.1 0.6-3.1 0.2-0.6 0.6-1.2 1-1.7 0.7-0.6 1.7-0.9 2.6-1 4.6-0.5 7.5 3.9 5.3 7.9z"/><path class="g" d="m216.7 31.4c-0.9 1.5-2.7 2.4-4.4 2-1.7-0.4-3-2-3.1-3.7-0.1-0.8 0.1-1.6 0.5-2.4 0.1-0.5 0.4-1 0.8-1.3 0.5-0.6 1.3-0.8 2-0.9 3.6-0.4 5.9 3.1 4.2 6.3z"/><path class="f" d="m149.6 69.5c-0.5-2.5-2.9-4.5-6-4.1-0.9 0.1-1.9 0.4-2.5 1-0.5 0.5-0.8 1.1-1.1 1.7q-0.3 0.9-0.5 1.7-0.1-0.3-0.1-0.6c-0.1-1.1 0.2-2.1 0.6-3.1 0.3-0.6 0.6-1.2 1.1-1.7 0.6-0.6 1.6-0.9 2.5-1 3.9-0.4 6.6 2.7 6 6.1z"/><path class="g" d="m220.2 124.2c-0.7 1.3-2.3 2-3.8 1.7-1.4-0.3-2.5-1.7-2.6-3.2 0-0.6 0.1-1.3 0.4-2 0.2-0.4 0.4-0.8 0.7-1.1 0.5-0.5 1.1-0.7 1.7-0.7 3.1-0.4 5.1 2.6 3.6 5.3z"/><path class="f" d="m220.6 123c-0.3-1.7-1.9-3-3.9-2.8-0.7 0.1-1.3 0.3-1.8 0.7-0.3 0.3-0.5 0.7-0.7 1.2q-0.2 0.5-0.3 1.1-0.1-0.2-0.1-0.4c0-0.7 0.1-1.4 0.4-2.1 0.2-0.4 0.4-0.8 0.7-1.1 0.5-0.5 1.1-0.7 1.8-0.7 2.6-0.3 4.4 1.8 3.9 4.1z"/><path class="f" d="m217.1 30.2c-0.4-1.9-2.2-3.3-4.6-3.1-0.7 0.1-1.5 0.3-2 0.9-0.4 0.3-0.6 0.8-0.9 1.3q-0.2 0.6-0.3 1.1-0.1-0.3-0.1-0.7c-0.1-0.8 0.2-1.6 0.4-2.4 0.3-0.5 0.5-1 0.9-1.3 0.5-0.6 1.3-0.8 2-0.9 3.1-0.3 5.3 2.3 4.6 5.1z"/><path class="g" d="m248.7 41.1c-1.1 1.9-3.5 3-5.6 2.5-2.1-0.5-3.8-2.5-3.9-4.7-0.1-1 0.2-2 0.6-3 0.2-0.6 0.5-1.2 1-1.7 0.7-0.7 1.7-0.9 2.6-1 4.6-0.5 7.5 3.9 5.3 7.9z"/><path class="f" d="m249.3 39.3c-0.5-2.5-2.8-4.4-5.9-4.1-0.9 0.1-1.9 0.4-2.6 1.1-0.5 0.4-0.8 1.1-1 1.7-0.2 0.5-0.4 1.1-0.5 1.7q-0.1-0.4-0.1-0.8c-0.1-1 0.2-2 0.6-3 0.2-0.6 0.5-1.2 1-1.7 0.7-0.7 1.7-0.9 2.6-1 3.9-0.5 6.6 2.7 5.9 6.1z"/><path class="g" d="m177.9 30.5c0.5 4.2-2.4 9.5-6.7 12.2-4.2 2.8-9.6 2.9-12.4 0.2-1.3-1.2-2.1-3-2.6-4.9-0.3-1.2-0.5-2.5-0.2-3.9 0.4-1.9 1.7-3.8 3.2-5.4 7.3-8 17.7-6.9 18.7 1.8z"/><path class="f" d="m177.7 29.5c-3.5-4.3-11.1-3.6-16.9 2.6-1.5 1.7-2.8 3.6-3.2 5.5-0.3 1.4-0.1 2.7 0.3 3.9q0 0.3 0.1 0.5c-0.9-1.1-1.4-2.5-1.8-4-0.3-1.2-0.5-2.5-0.2-3.9 0.4-1.9 1.7-3.8 3.2-5.4 7-7.7 16.8-6.9 18.5 0.8z"/><path class="h" d="m226.5 50.7q3.8 3.7 8.1 6.8c2.5 1.9 0 6.2-2.6 4.3q-4.7-3.5-9.1-7.5c-2.3-2.2 1.2-5.7 3.6-3.6z"/><path class="h" d="m234.3 53.5q-3.6 3.9-6.7 8.1c-1.9 2.6-6.2 0.1-4.3-2.5q3.5-4.8 7.5-9.1c2.2-2.4 5.7 1.2 3.5 3.5z"/><path class="h" d="m166.5 53.8q3.8 3.6 8.1 6.7c2.5 1.9 0 6.2-2.6 4.3q-4.7-3.5-9.1-7.5c-2.3-2.2 1.2-5.7 3.6-3.5z"/><path class="h" d="m174.3 56.6q-3.6 3.8-6.7 8.1c-1.9 2.5-6.2 0-4.3-2.6q3.5-4.7 7.5-9.1c2.2-2.3 5.7 1.2 3.5 3.6z"/><path class="i" d="m188.1 66.8c0.6-1 3.6-4.9 4.9-3.7l2.6 2.3c0.3 0.3 0.9 0.3 1.2-0.1q1.2-1.8 3-3.2c0.1-0.1 0.3-0.2 0.4-0.2 0.2 0 0.3 0.1 0.4 0.3l2.1 2.7c0.3 0.4 1 0.4 1.3 0q1.1-1.6 2.3-3c0.4-0.4 1-0.3 1.3 0.1q1.4 1.7 2.3 3.8"/><path fill-rule="evenodd" class="j" d="m58.2 126.3q-4.6-5.7-4.6-20.1-25.5 0-31.3 0-11 0-16.3-5.5-5.3-5.5-5.3-14.2 0-9.2 4.5-16.6 9.3-15.3 27.1-42.6 8.8-13.4 24.2-13.5 3.2 0.1 7.6 0.1 4.4 0.1 7.1 0.1 12.4 0 16.8 4.4 4.4 4.3 4.4 15.1v46.8q4.9 0.6 7.7 2.1 2.8 1.5 3.9 4.1 1.1 2.7 1.1 7.1 0 6.8-2.9 9.3-2.9 2.6-9.8 3.1 0 14-4.9 20.1-4.9 6-14.8 6-9.9 0-14.5-5.8zm-4.2-83l-22.7 37.7h22.2z"/><path fill-rule="evenodd" class="j" d="m350.5 126.3q-4.6-5.7-4.6-20.1-25.6 0-31.3 0-11 0-16.3-5.5-5.4-5.5-5.4-14.2 0-9.2 4.6-16.6 9.3-15.3 27.1-42.6 8.8-13.4 24.2-13.5 3.2 0.1 7.6 0.1 4.4 0.1 7.1 0.1 12.3 0 16.7 4.4 4.4 4.3 4.4 15.1v46.8q4.9 0.6 7.7 2.1 2.8 1.5 3.9 4.1 1.1 2.7 1.1 7.1 0 6.8-2.8 9.3-2.9 2.6-9.9 3.1 0 14-4.9 20.1-4.9 6-14.7 6-10 0-14.5-5.8zm-4.3-83l-22.6 37.7h22.1z"/><path class="k" d="m92.4 80.3l-38.9 0.7 0.1-11.9h38.8z"/><path class="l" d="m384.6 80.3l-38.9 0.7 0.2-11.9h38.7z"/></svg>