<svg version="1.2" xmlns="http://www.w3.org/2000/svg" viewBox="0 0 1077 1134" width="1077" height="1134">
	<title>3017084-ai</title>
	<defs>
		<clipPath clipPathUnits="userSpaceOnUse" id="cp1">
			<path d="m268.87 659.05l-0.05 8.54c0.01-2.89-1.91 4.98-5.74 2.77l0.06-18.85c3.83 2.21 5.74 4.64 5.73 7.54z" />
		</clipPath>
		<clipPath clipPathUnits="userSpaceOnUse" id="cp2">
			<path d="m275.55 669.83l-0.05 12.79c-7.17 4.16-16.57 6.24-25.99 6.24l0.05-12.78c9.42 0 18.83-2.08 25.99-6.25z" />
		</clipPath>
		<clipPath clipPathUnits="userSpaceOnUse" id="cp3">
			<path d="m212.57 666.87l0.06-19.32c-0.02 5.49 3.61 10.99 10.87 15.18c7.21 4.17 16.64 6.25 26.06 6.25l-0.05 19.88c-9.43 0-18.86-2.08-26.07-6.24c-7.26-4.19-10.88-10.26-10.87-15.75z" />
		</clipPath>
		<clipPath clipPathUnits="userSpaceOnUse" id="cp4">
			<path d="m510.2 499.19v-3.22q0 1.14 0.55 2.3l-0.01 3.23q-0.55-1.17-0.54-2.31z" />
		</clipPath>
	</defs>
	<style>
		.s0 { fill: #87aedd } 
		.s1 { fill: #58affb } 
		.s2 { fill: #003783 } 
		.s3 { fill: none;stroke: #16c5dc;stroke-width: 6 } 
		.s4 { fill: #ff4272 } 
		.s5 { fill: #212973 } 
		.s6 { fill: #7baeff } 
		.s7 { fill: #ce7c56 } 
		.s8 { fill: #ffbe3d } 
		.s9 { fill: #e2a029 } 
		.s10 { fill: #2670d4 } 
		.s11 { fill: #2689fd } 
		.s12 { fill: #cc096a } 
		.s13 { fill: #ee2c6a } 
		.s14 { fill: #5b5bd6 } 
		.s15 { fill: #b391ff } 
		.s16 { fill: #7974f5 } 
		.s17 { fill: #382747 } 
		.s18 { fill: #535e6d } 
		.s19 { fill: #636f82 } 
		.s20 { fill: #e2edff } 
		.s21 { fill: #e16b40 } 
		.s22 { fill: #455baf } 
		.s23 { fill: #e1e8f2 } 
		.s24 { fill: #ff8654 } 
		.s25 { fill: #ff9f75 } 
		.s26 { fill: #cfdae4 } 
		.s27 { fill: #00a5ff } 
		.s28 { fill: #4d2c63 } 
		.s29 { fill: #ee428c } 
		.s30 { fill: #00265a } 
		.s31 { fill: #002f71 } 
		.s32 { fill: #002a65 } 
		.s33 { fill: #00357f } 
		.s34 { fill: #001e46 } 
		.s35 { fill: #0046a6 } 
		.s36 { fill: #4da5dc } 
		.s37 { fill: #5155d4 } 
		.s38 { opacity: .8;fill: #cc096a } 
		.s39 { fill: #eaeeee } 
		.s40 { fill: #adcdfc } 
		.s41 { fill: #c7d8f2 } 
		.s42 { fill: #ea9273 } 
		.s43 { fill: #ffffff } 
		.s44 { fill: #94a3c0 } 
		.s45 { fill: #616d7f } 
		.s46 { fill: #6d7b93 } 
		.s47 { opacity: .5;fill: #2689fd } 
		.s48 { fill: #93513f } 
		.s49 { fill: #a55d46 } 
		.s50 { fill: #ff5668 } 
		.s51 { fill: #16c5dc } 
		.s52 { fill: #f2f8fd } 
		.s53 { fill: #7cccff } 
		.s54 { fill: #bb4f23 } 
		.s55 { fill: #1e079d } 
		.s56 { fill: #88630a } 
		.s57 { fill: #113c7a } 
		.s58 { fill: #d4d9df } 
	</style>
	<g id="OBJECTS">
		<g id="&lt;Group&gt;">
			<g id="&lt;Group&gt;">
				<g id="&lt;Group&gt;" style="opacity: .4">
					<path id="&lt;Path&gt;" class="s0" d="m662.7 696.4c132.7 76.6 133.4 200.8 1.6 277.4c-131.8 76.6-346.2 76.6-478.9 0c-132.6-76.6-133.3-200.8-1.5-277.4c131.8-76.6 346.2-76.6 478.8 0z" />
				</g>
				<g id="&lt;Group&gt;" style="opacity: .4">
					<path id="&lt;Path&gt;" class="s0" d="m789.7 960c68.9 39.8 69.2 104.3 0.8 144c-68.4 39.8-179.8 39.8-248.7 0c-68.9-39.7-69.2-104.2-0.8-144c68.5-39.8 179.8-39.8 248.7 0z" />
				</g>
				<g id="&lt;Group&gt;" style="opacity: .4">
					<path id="&lt;Path&gt;" class="s0" d="m300.4 622.9c68.9 39.7 69.3 104.2 0.8 144c-68.4 39.8-179.8 39.8-248.7 0c-68.9-39.8-69.2-104.2-0.8-144c68.5-39.8 179.8-39.8 248.7 0z" />
				</g>
			</g>
			<g id="&lt;Group&gt;">
				<g id="&lt;Group&gt;">
					<path id="&lt;Path&gt;" class="s1" d="m1059.1 188.8l-11.6 6.7l-322.5-186.2q-1.8-1.1-3.5-1.6q0-0.1-0.1-0.1q-1.6-0.5-3.2-0.7q0 0-0.1 0q-1.5-0.1-2.9 0.2q0 0 0 0q-1.4 0.3-2.6 1l11.5-6.8q0.7-0.3 1.5-0.6q0.5-0.2 1.1-0.3q0 0 0 0q0.1 0 0.1 0q0.5-0.1 1-0.2q0.4 0 0.9 0q0.4 0 0.8 0q0.1 0 0.2 0q0 0 0.1 0q0.2 0 0.5 0.1q0.3 0 0.7 0.1q0.4 0.1 0.7 0.2q0.4 0.1 0.8 0.2q0.2 0 0.5 0.1q0 0 0 0q0.1 0.1 0.2 0.1q0.3 0.1 0.7 0.3q0.3 0.1 0.7 0.3q0.3 0.1 0.7 0.3q0.3 0.2 0.7 0.4q0.3 0.1 0.5 0.3z" />
					<path id="&lt;Path&gt;" class="s1" d="m1076.4 218.8l-0.6 220.4q0 0 0 0.1q0 0.4 0 0.8q0 0.4-0.1 0.8q0 0.4-0.1 0.9q0 0.4-0.1 0.8q0 0.2-0.1 0.4q0 0 0 0.1q0 0.2-0.1 0.3q-0.1 0.5-0.2 0.9q-0.1 0.5-0.3 1q-0.2 0.4-0.4 0.8q0 0.1 0 0.1q0 0 0 0q-0.3 0.7-0.7 1.2c-0.2 0.3-0.4 0.6-0.6 0.8q-0.2 0.3-0.5 0.6c-0.6 0.6-1.2 1.2-1.9 1.6l-11.5 6.7c0.7-0.4 1.3-1 1.9-1.6q0.2-0.3 0.5-0.6c0.4-0.6 0.9-1.2 1.3-2q0 0 0-0.1q0.6-1.3 1-3q0-0.1 0-0.1q0.3-1.8 0.3-3.8l0.7-220.4q0-2-0.4-4.2q0 0 0 0q-0.3-2.1-1-4.3q0 0 0-0.1q-0.6-2.1-1.6-4.2q0-0.1 0-0.1q-0.9-2-2-4q-0.1-0.1-0.1-0.2c-1.6-2.7-3.4-5.2-5.5-7.4q0 0 0-0.1q-1.6-1.6-3.2-2.9q-0.1-0.1-0.1-0.1q-1.7-1.4-3.5-2.4l11.6-6.7q0 0 0.1 0.1q0.4 0.2 0.8 0.4q0.3 0.3 0.7 0.5q0.4 0.3 0.8 0.6q0.4 0.2 0.7 0.5q0.2 0.2 0.3 0.3q0.1 0 0.1 0q0.2 0.2 0.4 0.4q0.4 0.3 0.8 0.6q0.4 0.4 0.7 0.8q0.4 0.3 0.8 0.7q0.2 0.3 0.5 0.5q0 0.1 0.1 0.1q0 0.1 0.1 0.1q0.3 0.4 0.7 0.8q0.3 0.4 0.6 0.8q0.4 0.4 0.7 0.8q0.4 0.5 0.8 1q0.6 0.8 1.1 1.6q0.7 1 1.3 2q0 0.2 0.1 0.3q0.1 0.1 0.1 0.2q0.3 0.5 0.6 1.1q0.3 0.5 0.6 1q0.2 0.5 0.4 0.9q0.2 0.4 0.4 0.9q0 0 0.1 0.1q0 0 0 0.1q0.1 0.3 0.3 0.6q0.1 0.4 0.3 0.8q0.2 0.5 0.3 0.9q0.2 0.4 0.3 0.9q0.2 0.4 0.3 0.9q0 0.1 0.1 0.1q0 0.1 0 0.1q0.1 0.3 0.2 0.7q0.1 0.5 0.2 0.9q0.1 0.5 0.2 0.9q0.1 0.5 0.2 1q0.1 0.4 0.2 0.8q0 0 0 0q0 0 0 0q0.1 0.5 0.1 0.9q0.1 0.4 0.1 0.9q0 0.4 0.1 0.8q0 0.4 0 0.9q0 0.3 0 0.7z" />
					<g id="&lt;Group&gt;">
						<path id="&lt;Path&gt;" class="s2" d="m1047.5 195.5c9.6 5.5 17.4 19 17.4 30l-0.7 220.4c0 11.1-7.8 15.5-17.4 10l-322.5-186.2c-9.7-5.6-17.4-19-17.4-30.1l0.6-220.4c0.1-11 7.9-15.5 17.5-9.9z" />
					</g>
				</g>
				<path id="&lt;Path&gt;" class="s3" d="m1028.2 254.8l-41.8 3.7l-28.2-7.4l-13.7 11.1l-26-12.4l-21.4 45l-15.8-23.3l-17.4-14.2l-17.3-24.8l-38.5 12.4l-17.9 10.8l-18-18.3l-16.1-26l-24.7 12.6" />
				<g id="&lt;Group&gt;">
					<g id="&lt;Group&gt;">
						<path id="&lt;Path&gt;" class="s4" d="m1038.8 262.6c0 7.4-5.2 10.4-11.6 6.7c-6.4-3.7-11.6-12.7-11.6-20.1c0-7.3 5.3-10.3 11.7-6.6c6.4 3.7 11.6 12.7 11.5 20z" />
					</g>
					<g id="&lt;Group&gt;">
						<path id="&lt;Path&gt;" class="s5" d="m1032.5 259c0 3.3-2.4 4.6-5.3 3c-2.9-1.7-5.2-5.8-5.2-9.1c0-3.3 2.3-4.7 5.2-3c2.9 1.7 5.3 5.7 5.3 9.1z" />
					</g>
				</g>
				<g id="&lt;Group&gt;">
					<g id="&lt;Group&gt;">
						<path id="&lt;Path&gt;" class="s6" d="m975 320.3v3c0 1.7-1.9 2.8-3.4 1.9l-13.9-8c-0.7-0.4-1.1-1.1-1.1-1.9v-3c0-1.7 1.9-2.8 3.4-1.9l13.9 8c0.7 0.4 1.1 1.1 1.1 1.9z" />
					</g>
					<g id="&lt;Group&gt;">
						<path id="&lt;Path&gt;" class="s6" d="m1019 360.1v3c0 1.7-1.9 2.8-3.4 1.9l-57.9-33.1c-0.7-0.4-1.1-1.2-1.1-2v-2.9c0-1.8 1.9-2.9 3.4-2l57.9 33.2c0.7 0.4 1.1 1.1 1.1 1.9z" />
					</g>
					<g id="&lt;Group&gt;" style="opacity: .5">
						<path id="&lt;Path&gt;" class="s6" d="m995.1 375.7v3c0 1.7-1.8 2.8-3.3 1.9l-34.1-19.5c-0.7-0.4-1.1-1.1-1.1-1.9v-3c0-1.7 1.9-2.8 3.4-1.9l34 19.5c0.7 0.4 1.1 1.1 1.1 1.9z" />
					</g>
					<g id="&lt;Group&gt;">
						<path id="&lt;Path&gt;" class="s6" d="m1010 369.6v3c0 1.7-1.9 2.8-3.4 1.9l-48.9-28c-0.7-0.4-1.1-1.1-1.1-2v-2.9c0-1.7 1.9-2.8 3.4-2l48.9 28.1c0.7 0.4 1.1 1.1 1.1 1.9z" />
					</g>
				</g>
				<g id="&lt;Group&gt;">
					<g id="&lt;Group&gt;">
						<g id="&lt;Group&gt;">
							<path id="&lt;Path&gt;" class="s7" d="m774 138.8l8.6-5l-0.1 25l-8.5 4.9z" />
						</g>
						<g id="&lt;Group&gt;">
							<path id="&lt;Path&gt;" class="s8" d="m753.5 126.9l8.5-5l20.6 11.9l-8.6 5z" />
						</g>
						<g id="&lt;Group&gt;">
							<path id="&lt;Path&gt;" class="s9" d="m774 138.8v24.9l-20.6-11.9l0.1-24.9z" />
						</g>
					</g>
					<g id="&lt;Group&gt;">
						<g id="&lt;Group&gt;">
							<path id="&lt;Path&gt;" class="s10" d="m806.7 135.2l8.5-4.9l-0.1 47.3l-8.5 4.9z" />
						</g>
						<g id="&lt;Group&gt;">
							<path id="&lt;Path&gt;" class="s1" d="m786.1 123.4l8.5-5l20.6 11.9l-8.5 4.9z" />
						</g>
						<g id="&lt;Group&gt;">
							<path id="&lt;Path&gt;" class="s11" d="m806.7 135.2l-0.1 47.3l-20.6-11.8l0.1-47.3z" />
						</g>
					</g>
					<g id="&lt;Group&gt;">
						<g id="&lt;Group&gt;">
							<path id="&lt;Path&gt;" class="s12" d="m839.3 135l8.6-4.9l-0.2 66.3l-8.6 5z" />
						</g>
						<g id="&lt;Group&gt;">
							<path id="&lt;Path&gt;" class="s13" d="m818.8 123.1l8.5-4.9l20.6 11.9l-8.6 4.9z" />
						</g>
						<g id="&lt;Group&gt;">
							<path id="&lt;Path&gt;" class="s13" d="m839.3 135l-0.2 66.4l-20.5-11.9l0.2-66.4z" />
						</g>
					</g>
					<g id="&lt;Group&gt;">
						<g id="&lt;Group&gt;">
							<path id="&lt;Path&gt;" class="s14" d="m872 136.7l8.5-4.9l-0.2 83.4l-8.6 5z" />
						</g>
						<g id="&lt;Group&gt;">
							<path id="&lt;Path&gt;" class="s15" d="m851.4 124.9l8.5-5l20.6 11.9l-8.5 4.9z" />
						</g>
						<g id="&lt;Group&gt;">
							<path id="&lt;Path&gt;" class="s16" d="m872 136.7l-0.3 83.5l-20.5-11.9l0.2-83.4z" />
						</g>
					</g>
				</g>
			</g>
			<g id="&lt;Group&gt;">
				<g id="&lt;Group&gt;">
					<g id="&lt;Group&gt;">
						<path id="&lt;Path&gt;" class="s17" d="m546.2 599.8l26.6-3q7.3 24.6 4.6 27.3c-2.7 2.6-5.9 6.4-15 9.6c-9.2 3.3-10.8 11.9-20.5 14.6c-9.7 2.7-24.8 1.6-28-4.9c-3.2-6.4 3.2-15.6 10.2-18.3c7-2.7 11.3-3.9 19.9-9.9q8.6-5.9 5.4-16.4" />
						<path id="&lt;Path&gt;" class="s18" d="m615.6 356.2q-9 26.8-23.9 52.7c-14.9 25.8-35.8 81.5-36.8 92.5c-1 10.9 11.9 43.7 14.9 53.7q3 9.9 6 39.7q7-6.9-1 5c-8 12-20.9 13.9-24.9 12c-3.9-2-7.9-17-12.9-34.9c-5-17.9-24.9-54.7-27.8-69.6c-3-14.9 13.9-84.5 18.9-103.4q4.9-18.9 12.9-72.6z" />
						<g id="&lt;Group&gt;">
							<path id="&lt;Path&gt;" class="s17" d="m591 627.7l32.8 10.7q1.1 10.8-1.6 13.5c-2.7 2.7-5.9 6.5-15.1 9.7c-9.1 3.2-10.8 11.8-20.4 14.5c-9.7 2.7-24.8 1.6-28-4.8c-3.3-6.5 3.2-15.6 10.2-18.3c7-2.7 8.6-6.5 17.2-12.4q8.6-5.9 8.1-14" />
							<path id="&lt;Path&gt;" class="s19" d="m651.4 355.2c0 24.8-14.9 90.5-17.9 127.3c-3 36.8-2 74.6-4 103.4q-2 28.8-5 53.7c-15.9 10.9-34.8 3-35.8 0c-1-3-1-26.9 0-47.7c1-20.9-8.9-135.3-11.9-152.2c-3-16.9-4-25.8-10-37.8q-5.9-11.9-8.9-55.7q45.7 23.9 93.5 9z" />
							<path id="&lt;Path&gt;" class="s18" d="m651.4 355.2c0 24.8-14.9 90.5-17.9 127.3c-3 36.8-2 74.6-4 103.4q-2 28.8-5 53.7q-1.6 1.1-3.3 2c4.5-37.5 3.3-104.6 2.2-125.8c-1.5-28.4 10.4-56.7 10.4-85c0-28.4-3.2-40.3-34.5-49.3c-14.7-4.2-28.8-10.7-39.7-16.4q-1.1-10.4-1.7-18.9q45.7 23.9 93.5 9z" />
						</g>
						<g id="&lt;Group&gt;">
							<path id="&lt;Path&gt;" class="s20" d="m517.2 193.7q41.2-34.1 49.6-34.9c10.1-0.8 22.6 2.6 25.9 16.9c3.2 14.2-4.3 25.1-11.9 29.2c-7.6 4.2-84.1 43.7-95.8 43.7c-11.8-0.1-19.2-10.2-11.6-22.7q7.6-12.5 43.8-32.2z" />
							<g id="&lt;Group&gt;">
								<g id="&lt;Group&gt;">
									<g id="&lt;Group&gt;">
										<g id="&lt;Group&gt;">
											<g id="&lt;Group&gt;">
												<g id="&lt;Group&gt;">
													<path id="&lt;Path&gt;" class="s21" d="m632.1 134.1c-1.6 9.3-3.2 28.1-2.9 29.9c-5.3 9.9-19.9 12.8-28.4 12.5c-8.6-0.2-11.9-5.9-11.4-9c0.4-3.3 2.3-11.1 2.9-14.1q0.2-0.9 0.1-1.4z" />
												</g>
											</g>
										</g>
									</g>
									<path id="&lt;Path&gt;" class="s22" d="m627.3 154q40.6 32.1 44.3 42.3c3.7 10.2 3.2 38.1-6.4 56.2c-9.6 18.1-9.1 95.5-12.8 108.6c-3.8 13.2-40 15.7-62.1 10.3c-22-5.4-57.1-23.9-50-48.9c10.4-37 7.2-83.2 6.3-95c-0.8-11.7 2.2-41.1 8.6-60.5q1.3-4.1 15.8-9.8q15-7 56.3-3.2z" />
								</g>
								<path id="&lt;Path&gt;" class="s23" d="m644.2 172.3c-5 5.1-14.9 15.4-25 26.3q-14.3 15.5-36.1 53.1q-6.6-45.8-9.4-62.5c-1.4-8.6-1.1-17.9-0.5-25c4-1.9 20.2-8 55.5-4.7q7.1 5.5 15.5 12.8z" />
								<path id="&lt;Path&gt;" class="s24" d="m632.1 134.1c-1.6 9.3-3.2 28.1-2.9 29.9c-5.3 9.9-19.9 12.8-28.4 12.5c-8.6-0.2-11.9-5.9-11.4-9c0.4-3.3 2.3-11.1 2.9-14.1q0.2-0.9 0.1-1.4z" />
								<g id="&lt;Group&gt;">
									<g id="&lt;Group&gt;">
										<path id="&lt;Path&gt;" class="s25" d="m565.1 95.8c2.3-26.5 21.4-43.3 45.2-40.1q25.5 0 38.9 21c13.4 21-1.2 41.3-10.6 54.1c-3.9 5.3-6.9 9.3-8.8 11.9c-0.7 1-1.4 2-2.1 2.9q-0.1 0.1-0.2 0.2c-6.5 7.9-14.3 12.8-20.3 15.3c-9.8 4-22 3.5-29.1-2.8c-7.2-6.3-15.3-36.1-13-62.5z" />
									</g>
								</g>
								<path id="&lt;Path&gt;" class="s26" d="m578.2 198.5l15.7-13.9l12.6 22l12.7-8q-14.4 15.5-36.1 53.1q-5.5-38.2-8.6-57.5z" />
								<path id="&lt;Path&gt;" class="s27" d="m579.2 225.5l7.1-24.7l-1.1-8.5l8.7-7.7l6.1 10.7l-7 6.4l-1.9 36.7q-4.8 7.7-8 13.3q-1.8-12.2-3.9-26.2z" />
							</g>
							<path id="&lt;Path&gt;" class="s7" d="m651.7 73.7q12.6 16.7 3.1 37.7c-9.6 20.9-21.7 31.3-25 31.3c-3.4 0-5.2-0.6-4.7-3.2q0.5-2.6 3.4-11.5q13.8-3.8 12.4-12.9c-1.3-9.1-6.6-10-12-6.7c-5.4 3.4-5.6 7.7-8.4 11.5c-2.8 3.8-2.4 12.2-5 11.7c-2.7-0.4-4.7-2.7-5.3-6.8c-0.6-4.1-1.4-9.1 2.9-14.8c4.2-5.7-2.9-13.2 1.1-20.5q4-7.4 6.9-10.4q-2.5 5.5-19.6 4.7c-17-0.9-24.4 1.1-31.6-2.1c-7.3-3.1-7-12.5-3.3-16.4c3.6-4 13.3-7.1 24.3-13c11-5.9 18-4.4 32.5-3.2c14.6 1.3 30.1 14.2 28.3 24.6z" />
						</g>
						<path id="&lt;Path&gt;" class="s7" d="m623.2 116.4c-3.2 5.5-2.3 38.1-9.7 42.7c-7.4 4.6-23.1 7-33.3 2.5c-10.2-4.5-13.1-23.7-13.4-29.2c-0.3-5.5 7.6-6.1 19.1-3.3c11.5 2.8 11.1 17.4 18.6 13.8q7.5-3.7 7.5-30.8q14.4-1.2 11.2 4.3z" />
						<path id="&lt;Path&gt;" class="s25" d="m485 248.6q-11.4 5.4-22.6-5.8q-11.2-11.2-45.5-72.3q1.5-14.2 17.9-16.4q38.8 49.9 47 58.9c8.2 8.9 17.5 25.7 3.2 35.6z" />
						<path id="&lt;Path&gt;" class="s20" d="m654.1 269.1q-21.2-49.1-19.6-57.4c2.1-9.8 8.9-20.9 23.5-20.1c14.6 0.9 22.9 11.2 24.7 19.6c1.9 8.4 15.8 74.1 12.4 85.3c-3.3 11.2-15.1 15.6-25 4.8q-9.9-10.8-16-32.2z" />
						<path id="&lt;Path&gt;" class="s25" d="m667.7 311.2q-12.1-0.4-83.7 2.2q-9-13.9 0.7-24.2q77.2-13.3 92.9-12.2q15.8 1.2 19.1 13.3c1.9 17.4-16.9 21.3-29 20.9z" />
						<path id="&lt;Path&gt;" class="s25" d="m584.3 289.3c1.2 0.6 2 1.7 2.3 3l4.9 19.8q-5.4 1.6-10.9 3.1c-5.4 1.4-13.5 5.1-17.4 4.7c-4-0.4-5.8-1.4-6.9-2.5c-1-1-2.3-0.8-5.2-2q-2.9-1.3-3.7-3.4q-4 0.2-7.3 1.1c-3.3 0.8-8.5-0.4-7.7-3.6c0.9-3.1 19.6-6.7 22.1-8.1c2.5-1.4 8.1-8 7.5-10.5c-0.5-2.5-6.4-6.1-10.5-8.3c-4.2-2.3-3.3-8.4-0.9-8.7c2.3 0.6 13.4 5.5 17.2 7.2c3.1 1.3 12.5 6.1 16.5 8.2z" />
					</g>
					<path id="&lt;Path&gt;" class="s25" d="m435.2 170.8q-12.3 5.3-15.7 1.9c-3.3-3.4-10.4-7.5-16.7-9c-6.4-1.4-7.5-3.7-10.9-7.8c-3.3-4.1-0.7-2.6-3.7-6.7c-3-4.1 1.5-4.5 0.4-8.2c-1.1-3.7-1.5-8.6 3.3-6c4.9 2.6 6.8 3 4.9 0.4c-1.9-2.6-12.3-9.3-16.4-12.7c-4.1-3.3-5.2-5.5-3-8.2c2.3-2.6 11.6 4.5 14.5 7.5c3 3 16.5 11.5 17.6 10.4c1.1-1.1 1.5-5.9 1.1-10.8c-0.4-4.8 4.5-11.2 7.8-11.2c3.4 0 0 11.6 1.5 16.4c1.5 4.9 3.4 7.9 7.5 12q4.1 4.1 7.4 15.3z" />
				</g>
			</g>
			<g id="&lt;Group&gt;">
				<path id="&lt;Path&gt;" class="s28" d="m135.6 256.9q13.4 3 16 15.6c2.6 12.6-9.3 22.7-3.4 32.3c6 9.7 13.8 7.8 16 23.8c2.2 15.9-23.8 43-42.7 15.9q-18.9-27.1 14.1-87.6z" />
				<path id="&lt;Path&gt;" class="s8" d="m168.2 359c11.6 8.3 16.6 59.9 26.6 89.9c10 30 21.7 41.6 40 50c18.3 8.3 51.6 25 45 46.6c-6.7 21.7-93.3 65-108.3 71.6c-15 6.7-79.9 0-114.9-46.6c-35-46.6-36.6-159.9-30-174.9q6.7-15 31.7-21.6c69.9-36.7 98.2-23.4 109.9-15z" />
				<path id="&lt;Path&gt;" class="s29" d="m189.3 432.5c-2.3 13.6-13.8 16.2-22.2 9.1c-8.4-7.1-36.4-70.2-39.3-77.7c-2.8-7.6-1.6-20 9.4-28.2c11.1-8.1 22.1-2.9 28.8 3.8q5.5 5.7 14 55.3q11.5 24.1 9.3 37.7z" />
				<path id="&lt;Path&gt;" class="s24" d="m173.2 413.7q5.3-6.5 41.8-66.6q15.9 0.6 13.6 17.7c-5.3 4.7-26.5 76-41.9 80.7q-15.3 4.7-24.7-10c-1.8-8.3 5.9-15.3 11.2-21.8z" />
				<g id="&lt;Group&gt;">
					<g id="&lt;Group&gt;">
						<g id="&lt;Group&gt;">
							<g id="&lt;Group&gt;">
								<path id="&lt;Path&gt;" class="s30" d="m146.9 662.2l-15.7-9.1l58.6-9.7l15.7 9.1z" />
							</g>
							<g id="&lt;Group&gt;">
								<path id="&lt;Path&gt;" class="s31" d="m135.8 668.5l-15.6-9.1l11-6.3l15.7 9.1z" />
							</g>
							<g id="&lt;Group&gt;">
								<path id="&lt;Path&gt;" class="s32" d="m77.9 732.8l-15.7-9.1v-6.6l15.7 9.1z" />
							</g>
							<g id="&lt;Group&gt;">
								<path id="&lt;Path&gt;" class="s33" d="m77.9 726.2l-15.7-9.1l58-57.7l15.6 9.1z" />
							</g>
							<g id="&lt;Group&gt;">
								<path id="&lt;Path&gt;" class="s34" d="m146.9 662.2l58.6-9.7v6.6l-58.6 17.5l-11 6.4l-58 49.8v-6.6l57.9-57.7z" />
							</g>
						</g>
					</g>
					<g id="&lt;Group&gt;">
						<g id="&lt;Group&gt;">
							<g id="&lt;Group&gt;">
								<path id="&lt;Path&gt;" class="s30" d="m59.7 652.5l15.7-9.1l58.6 9.7l-15.7 9.1z" />
							</g>
							<g id="&lt;Group&gt;">
								<path id="&lt;Path&gt;" class="s31" d="m118.3 662.2l15.7-9.1l11 6.3l-15.6 9.1z" />
							</g>
							<g id="&lt;Group&gt;">
								<path id="&lt;Path&gt;" class="s32" d="m187.3 726.2l15.7-9.1v6.6l-15.7 9.1z" />
							</g>
							<g id="&lt;Group&gt;">
								<path id="&lt;Path&gt;" class="s33" d="m129.4 668.5l15.6-9.1l58 57.7l-15.7 9.1z" />
							</g>
							<g id="&lt;Group&gt;">
								<path id="&lt;Path&gt;" class="s34" d="m129.4 668.5l57.9 57.7v6.6l-58-49.8l-11-6.4l-58.6-17.5v-6.6l58.6 9.7z" />
							</g>
						</g>
					</g>
					<g id="&lt;Group&gt;">
						<g id="&lt;Group&gt;">
							<g id="&lt;Group&gt;">
								<path id="&lt;Path&gt;" class="s30" d="m59.7 652.5l15.7-9.1l58.6 9.7l-15.7 9.1z" />
							</g>
							<g id="&lt;Group&gt;">
								<path id="&lt;Path&gt;" class="s31" d="m118.3 662.2l15.7-9.1l11 6.3l-15.6 9.1z" />
							</g>
							<g id="&lt;Group&gt;">
								<path id="&lt;Path&gt;" class="s32" d="m187.3 726.2l15.7-9.1v6.6l-15.7 9.1z" />
							</g>
							<g id="&lt;Group&gt;">
								<path id="&lt;Path&gt;" class="s33" d="m129.4 668.5l15.6-9.1l58 57.7l-15.7 9.1z" />
							</g>
							<g id="&lt;Group&gt;">
								<path id="&lt;Path&gt;" class="s34" d="m129.4 668.5l57.9 57.7v6.6l-58-49.8l-11-6.4l-58.6-17.5v-6.6l58.6 9.7z" />
							</g>
						</g>
					</g>
					<g id="&lt;Group&gt;">
						<g id="&lt;Group&gt;">
							<g id="&lt;Group&gt;">
								<path id="&lt;Path&gt;" class="s35" d="m143.3 594.3l-0.2 65.9l-11.5 6.7l0.2-65.9z" />
							</g>
							<g id="&lt;Group&gt;">
								<path id="&lt;Path&gt;" class="s2" d="m131.8 601l-0.2 65.9l-11.6-6.7l0.2-65.9z" />
							</g>
							<g id="&lt;Group&gt;">
								<path id="&lt;Path&gt;" class="s36" d="m143.3 594.3l-11.5 6.7l-11.6-6.7l11.5-6.7z" />
							</g>
						</g>
					</g>
				</g>
				<g id="&lt;Group&gt;">
					<path id="&lt;Path&gt;" class="s17" d="m302 731.3q14.7 16.2 27.1 21.6c12.2 11.5 23.3 20 21.9 28.9c-3 8.9-30.7 2-42.1-4.5q-11.4-6.4-20.8-17.8l1.9 5.3c0.5 1.4-0.9 2.6-2.2 2.1c-1.6-0.7-3.5-1.8-4.7-3.4c-2.4-3.5-4.9-14.9-2.4-20.3q2.4-5.5 21.3-11.9z" />
					<path id="&lt;Path&gt;" class="s24" d="m237.4 587.7c7.3 7.3 33.2 72.4 49 102.7c16 31 26.4 53.7 21 56.2c-13.6 11.3-21.6 5.6-30.7-10.5c-8.8-24.8-35.3-63.3-54.5-85q-19.3-21.7-19.3-47.3c2.5-32.1 27.3-23.3 34.5-16.1z" />
					<path id="&lt;Path&gt;" class="s24" d="m304.5 729.9q4.9 11.2 18.2 21.2c13.4 10-3.4 20.3-12.8 17.3c-9.4-3-26.3-15.3-27.8-20.8c-1.4-5.4 1.8-31.4 22.4-17.7z" />
				</g>
				<g id="&lt;Group&gt;">
					<path id="&lt;Path&gt;" class="s17" d="m337.6 692.7q14.7 16.2 27.1 21.6c12.2 11.5 23.4 19.9 21.9 28.9c-3 8.9-30.7 1.9-42.1-4.5q-11.4-6.4-20.8-17.8l1.9 5.3c0.5 1.4-0.9 2.6-2.2 2.1c-1.6-0.7-3.4-1.8-4.6-3.5c-2.5-3.4-5-14.8-2.5-20.3q2.5-5.4 21.3-11.8z" />
					<path id="&lt;Path&gt;" class="s24" d="m273.1 549.1c7.2 7.2 33.2 72.4 48.9 102.7c16.1 31 26.5 53.7 21 56.2c-13.6 11.2-21.6 5.6-30.6-10.5c-8.8-24.9-35.3-63.4-54.6-85q-19.2-21.7-19.2-47.3c2.4-32.1 27.3-23.3 34.5-16.1z" />
					<path id="&lt;Path&gt;" class="s24" d="m340.2 691.3q4.8 11.1 18.2 21.2c13.3 10-3.5 20.3-12.9 17.3c-9.4-3-26.2-15.4-27.7-20.8c-1.5-5.4 1.7-31.4 22.4-17.7z" />
				</g>
				<path id="&lt;Path&gt;" class="s37" d="m195 486.7q1.5 8.9 4.5 13.4c2.9 4.5 55.7 29 63.8 35.6c8.2 6.7 14.9 12.7 17.1 32.7c-7.4 29-65.3 56.4-72.8 56.4c-7.4 0-14.1-7.4-17-11.8c-3-4.5-63.1-20.8-83.2-47.6q-20-26.7-11.1-68.3z" />
				<path id="&lt;Path&gt;" class="s29" d="m130.9 334.4c12.7 0.4 24 17.8 27.7 22.5c3.8 4.7 27.8 15.1 32.9 30.1c5.2 15.1-3.2 27.3-3.7 38.1c-0.5 10.8-6.1 31.2 8 53.5c5 7.9 5.1 31.1-18.8 40.5c-24 9.4-68.7 6.6-78.1-5.6c-7.5-12.7-15.3-64.9-28.7-83.9c-21.8-23.3-21.8-48.7-16.2-59.3q5.7-10.6 35-24.7q29.2-11.7 41.9-11.2z" />
				<path id="&lt;Path&gt;" class="s38" d="m177 519.1c-24 9.4-68.7 6.6-78.1-5.6c-7.5-12.7-15.3-64.9-28.7-83.9c-7.8-8.4-12.8-17-15.7-25c15.3 12.5 42 29.6 72.2 28.7c26.2-0.8 50.2-17.9 66.4-33.1c-0.9 9.3-5 17.4-5.3 24.9c-0.5 10.8-6.1 31.2 8 53.5c5 7.9 5.1 31.1-18.8 40.5z" />
				<path id="&lt;Path&gt;" class="s28" d="m90.1 486.2q-0.1-0.1-0.1-0.2c-0.3-1.2-0.6-2.4-0.9-3.6c-0.3-1-0.5-1.9-0.7-2.9c0-0.1 0-0.2 0-0.4c-0.6-2.2-1-4.6-1.6-6.9c0-0.1 0.4-0.2 0.4-0.3c-1.3-4.8-3.2-9.6-3.2-14.3v-0.1q46.5 18 103.3-16.4c-0.4 7.9-0.7 17.2 3.2 27.1c-11.5 8.8-45.3 29-100.4 18z" />
				<g id="&lt;Group&gt;">
					<g id="&lt;Group&gt;">
						<path id="&lt;Path&gt;" class="s20" d="m220.9 305.6q-8.3 4.8-16.5 9.6q-19 10.9-37.9 21.8c-3.7 2.1-8.4 4.1-11.4 7.2c-5 5.2-4.4 11.5-4.3 18q0 13.9 0 27.8q0.1 5.3 0.1 10.7c0 2.4-0.4 5.8 2 7.2c-2.9-1.7-4.1-3.3-4.1-6.8q0-4.1 0-8.3q-0.1-13.7-0.1-27.4c0-5-1-11.1 0.5-16c1.6-5 5.2-7.8 9.6-10.4q22-12.6 44-25.3q9.5-5.5 19-11q1.7-1 3.4-2c2.8-1.6 4.5-0.7 7.1 0.7c-1.1-0.6-2.3-0.5-3.5-0.2c-2.8 0.9-5.4 3-7.9 4.4z" />
						<g id="&lt;Group&gt;">
							<path id="&lt;Path&gt;" class="s6" d="m227.3 301.9c3.9-2.2 7-0.4 7 4l0.2 49.3c0 4.4-3.2 9.9-7 12.1l-69.6 40.1c-3.9 2.3-7 0.5-7-4l-0.2-49.2c0-4.5 3.2-9.9 7.1-12.1z" />
						</g>
					</g>
				</g>
				<g id="&lt;Group&gt;">
					<path id="&lt;Path&gt;" class="s29" d="m103.1 468.2c-2.2 13.6-13.7 16.2-22.1 9c-8.4-7.1-36.5-70.1-39.3-77.7c-2.9-7.6-1.7-20 9.4-28.1c11.1-8.2 22.1-3 28.8 3.8q5.5 5.7 14 55.2q11.5 24.2 9.2 37.8z" />
					<path id="&lt;Path&gt;" class="s24" d="m87.1 449.3q5.3-6.4 41.8-66.5q15.9 0.6 13.5 17.6c-5.3 4.8-26.5 76-41.8 80.7q-15.3 4.8-24.7-10c-1.8-8.2 5.9-15.3 11.2-21.8z" />
					<path id="&lt;Path&gt;" class="s24" d="m128.2 385.3q2.5-14.9 8.9-19.4c6.4-4.4 21.3-8.4 25.3-3.4c3.9 4.9 1.4 24.7-2.5 26.7q-4 2-13.4 5q-3.5 7.4-7.9 7.4q-4.5 0-10.4-16.3z" />
				</g>
				<g id="&lt;Group&gt;">
					<path id="&lt;Path&gt;" class="s39" d="m221.4 340.4c0 2-1.4 4.4-3.1 5.4c-1.7 1-3.1 0.2-3.1-1.8c-0.1-2 1.3-4.4 3.1-5.4c1.7-1 3.1-0.2 3.1 1.8z" />
				</g>
				<g id="&lt;Group&gt;">
					<g id="&lt;Group&gt;">
						<g id="&lt;Group&gt;">
							<g id="&lt;Group&gt;">
								<g id="&lt;Group&gt;">
									<path id="&lt;Path&gt;" class="s21" d="m121.9 337q-0.1 0.5 0.1 1.3c0.6 3.1 2.5 10.9 2.9 14.1c0.5 3.1-2.8 8.8-11.3 9c-8.5 0.2-23-2.6-28.3-12.5c0.3-1.8-1.3-20.4-2.9-29.7z" />
									<g id="&lt;Group&gt;">
										<g id="&lt;Group&gt;">
											<path id="&lt;Path&gt;" class="s24" d="m136.6 338.7c-6.1 7.2-18 9.5-28.3 7c-6.2-1.5-14.6-5.2-22.2-12q-0.1 0-0.2-0.2c-0.9-0.8-1.7-1.6-2.5-2.5c-2.2-2.3-5.8-5.8-10.4-10.4c-11.1-11.2-28.5-29-18.4-51.7q10.1-22.6 35.2-26.4c22.9-6.6 44.2 7.1 50.3 32.8c6.1 25.7 2.6 56.2-3.5 63.4z" />
										</g>
									</g>
								</g>
							</g>
						</g>
					</g>
					<path id="&lt;Path&gt;" class="s28" d="m135.1 251.1q11.4 3.5 3 20.8c-8.4 17.3-22.3 11.9-22.8 26.2c-0.5 14.4-2.5 20.3-14.8 27.3c-12.4 6.9 2.4 13.8 2.4 37.6c0 23.7-23.2 27.2-33.1 20.3c-9.9-7-1.5-13.9-14.4-26.8c-12.8-12.8-27.2-18.8-17.3-36.6c9.9-17.8 10.4-16.8 8.9-40.6c-1.5-23.7 9.4-38.6 30.7-45c21.3-6.5 43.1-6 57.4 16.8z" />
				</g>
			</g>
			<g id="&lt;Group&gt;">
				<g id="&lt;Group&gt;">
					<g id="&lt;Group&gt;">
						<path id="&lt;Path&gt;" class="s40" d="m504.8 889.1c0 14-1.5 25.1-11.9 35.7c-25.8 26.2-72.2 29.6-106.3 22.6c-17.4-3.6-36-10.8-48.3-24.2c-9.6-10.4-10.5-21.3-10.5-34.6c-0.1 18.2 15.9 31.6 30.9 39c17.3 8.5 36.8 12.2 55.9 12.4c18.7 0.2 37.7-2.8 54.9-10.2c15.8-6.8 33.4-19.5 35.1-38.1q0.1-1.3 0.2-2.6z" />
						<g id="&lt;Group&gt;">
							<path id="&lt;Path&gt;" class="s20" d="m478.7 852.5c34.6 20.1 34.9 52.5 0.4 72.5c-34.4 20.1-90.5 20.1-125.2 0c-34.7-20-34.8-52.4-0.4-72.5c34.5-20 90.5-20 125.2 0z" />
						</g>
					</g>
				</g>
				<g id="&lt;Group&gt;">
					<g id="&lt;Group&gt;">
						<g id="&lt;Group&gt;">
							<path id="&lt;Path&gt;" class="s41" d="m432.1 812.1l-0.3 77.3l-13.5 7.9l0.2-77.4z" />
						</g>
						<g id="&lt;Group&gt;">
							<path id="&lt;Path&gt;" class="s6" d="m418.5 819.9l-0.2 77.4l-13.6-7.9l0.2-77.3z" />
						</g>
						<g id="&lt;Group&gt;">
							<path id="&lt;Path&gt;" class="s36" d="m432.1 812.1l-13.6 7.8l-13.6-7.8l13.5-7.9z" />
						</g>
					</g>
				</g>
			</g>
			<g id="&lt;Group&gt;">
				<path id="&lt;Path&gt;" class="s40" d="m747 637.6c-6.3 59-56.3 102.9-105.4 129.5c-57.2 31-122.4 46.6-187.1 51.4c-64.7 4.8-130.5-0.7-193.1-18.2c-31.3-8.7-61.9-20.9-90.1-37.1c-25-14.3-48.5-32-67-54.2c-14.9-17.8-26.4-38.8-31.3-61.6c-3.1-15.2-2.4-30.6-2.4-45.9c-0.1 33.2 14.8 64.1 36.3 88.8c19.2 22.1 43.3 39.6 68.8 53.7c28.6 15.8 59.3 27.5 90.7 36c63.8 17.3 131.3 22.3 197 16.1c65-6.1 131.1-22.5 187.7-56c49-29.1 96.5-75.8 96.7-136.7c-0.1 11.4 0.4 22.9-0.8 34.2z" />
				<g id="&lt;Group&gt;">
					<path id="&lt;Path&gt;" class="s20" d="m647.8 463.7c132.7 76.6 133.4 200.8 1.6 277.4c-131.8 76.6-346.2 76.6-478.9 0c-132.6-76.6-133.3-200.8-1.5-277.4c131.8-76.6 346.2-76.6 478.8 0z" />
				</g>
			</g>
			<g id="&lt;Group&gt;">
				<path id="&lt;Path&gt;" class="s42" d="m586.3 587.7q-7-0.4-14.8-3.3c-7.8-3-8.9-11.2-8.2-16.4q0.8-5.2 1.5-9.2q-1.1-4.5 4.1-6.4c5.2-1.8 9.6 2.6 14.1 8.6q4.5 5.9 9.3 11.5z" />
				<path id="&lt;Path&gt;" class="s25" d="m582.3 590.7q-8.2-4.8-6.4-12.3c1.9-7.4 4.1-11.8 4.5-15.2c0.4-3.3-1.9-13.3 1.9-15.2c3.7-1.9 4 1.5 4.4 4.8c0.4 3.4 2.6 12.3 4.8 15.6q2.3 3.4 5.2 8.2q-6.6 13.3-14.4 14.1z" />
				<g id="&lt;Group&gt;">
					<path id="&lt;Path&gt;" class="s43" d="m668.5 655.4q-15 10-31.5-4.3c-16.5-14.3-52.2-56.5-56.3-60.2q0.3-13.6 13.4-18.6q26.7 22.2 40.5 31.6c13.7 9.4 59.3 34.5 33.9 51.5z" />
					<path id="&lt;Path&gt;" class="s41" d="m663.4 657.6c-5.8 1.8-15.7 2.7-26.4-6.5c-16.5-14.3-52.2-56.5-56.3-60.2q0.1-2.5 1.1-5.7c14.6 16.6 51.7 57.2 81.6 72.4z" />
				</g>
				<g id="&lt;Group&gt;">
					<g id="&lt;Group&gt;">
						<path id="&lt;Path&gt;" class="s43" d="m700.2 625.5q56.9-15.9 65.7-13c10.5 3.8 21.7 12.8 18.6 28.7c-3.1 15.8-15.6 23.4-25.1 24.2c-9.5 0.8-90.6 2.7-102.4-2.6c-11.8-5.3-14.8-18.8-1.5-28.1q13.3-9.2 44.7-9.2z" />
					</g>
					<path id="&lt;Path&gt;" class="s41" d="m759.4 665.4c-9.5 0.8-90.6 2.7-102.4-2.6c-7.6-3.4-11.6-10.4-9.7-17.3c5.6 2.7 15.1 7.2 21.6 8.4c9.6 1.8 54.4 1.8 84.7 0.7c16.4-0.6 25.9-8.5 31.2-15.6c-0.1 0.7-0.2 1.4-0.3 2.2c-3.1 15.8-15.6 23.4-25.1 24.2z" />
				</g>
			</g>
			<g id="&lt;Group&gt;">
				<g id="&lt;Group&gt;">
					<g id="&lt;Group&gt;">
						<path id="&lt;Path&gt;" class="s44" d="m582.3 1018.6q4.1 7.9 2.8 12.5c-1.4 4.6-6.5 8.8-14.8 9.7c-8.4 0.9-13.9-1.4-29.6-13.4c-15.7-12-21.8-4.6-28.7-16.6q-6.9-12.1 0.5-17.1z" />
						<path id="&lt;Path&gt;" class="s17" d="m579 994.1q3.3 15.7 5.1 27.8c0.5 5.5-6.9 13.1-17.5 12.6c-10.7-0.5-16.7-3.7-20.4-8.3c-3.7-4.6-26.8-13.6-31-17.3c-4.1-3.7-5-14.8-3.2-17.6c1.9-2.7 8.8-7.3 16.2-4.1c7.4 3.2 13.4 9.2 28.2 10.2q14.8 0.9 22.6-3.3z" />
					</g>
					<g id="&lt;Group&gt;">
						<g id="&lt;Group&gt;">
							<path id="&lt;Path&gt;" class="s44" d="m655.6 978.6q4.2 7.8 2.8 12.4c-1.4 4.7-6.5 8.8-14.8 9.8c-8.3 0.9-13.9-1.4-29.6-13.5c-15.7-12-21.7-4.6-28.6-16.6q-7-12 0.4-17.1z" />
							<path id="&lt;Path&gt;" class="s17" d="m652.4 954.1q3.2 15.7 5.1 27.7c0.5 5.5-6.9 13.1-17.6 12.6c-10.6-0.4-16.6-3.7-20.3-8.3c-3.7-4.6-26.8-13.6-31-17.3c-4.2-3.6-5.1-14.7-3.2-17.5c1.8-2.8 8.7-7.4 16.1-4.2c7.4 3.3 13.5 9.3 28.2 10.2q14.8 0.9 22.7-3.2z" />
						</g>
						<path id="&lt;Path&gt;" class="s45" d="m628.8 784.8c18.5 8.7 17.3 40.7 16.7 50q7.4 17.2 4.9 45.6c-1.9 22.3 2.2 60 4.1 75c0.5 3.8-1.6 7.4-5.2 8.9l-8.8 3.6q-18.5 2.5-24.6-7.4c-2.5-27.1-17.3-104.8-21-134.4q-11.4-49.6 33.9-41.3z" />
					</g>
					<path id="&lt;Path&gt;" class="s46" d="m774.3 789.8c17.3 20.9 14.8 56.7-1.2 70.2q-16.1 13.6-33.3 13.6q-4.9 4.9-18.5 12.3c-13.6 7.4-44.4 24.7-80.1 9.9q-35.8-14.8-69.1-21q7.4 17.3 4.9 45.7c-1.9 22.3 2.3 60 4.1 74.9c0.5 3.8-1.6 7.5-5.1 8.9l-8.8 3.7q-18.5 2.5-24.7-7.4c-2.4-27.1-17.2-104.8-20.9-134.4q-3.7-29.6 9.8-32q20.4-22.2 96.2-25.9l4.9-9.9q124.5-29.6 141.8-8.6z" />
				</g>
				<g id="&lt;Group&gt;">
					<path id="&lt;Path&gt;" class="s42" d="m671.2 640.8q12.3-4.6 11.5-20.9q-3.7-16.2-8.2-17.2q17.1-15.9 37.8-10.9q12.8 25.9 27.2 37q-11.6 30.5-68.3 12z" />
					<g id="&lt;Group&gt;">
						<path id="&lt;Path&gt;" class="s1" d="m772.3 628.4c9.9 7.4 34.6 37 22.2 80.2c-12.3 43.1 1.3 96.2-2.4 107.2c-3.7 11.1-7.4 30.9-58 39.5c-50.5 8.6-85.1-8.6-90-27.1c-4.9-18.5 14.8-49.3 4.9-83.9c-9.8-34.5-12.3-59.1 1.3-81.3q13.5-22.2 61.6-38.3c30.8-13.5 50.6-3.7 60.4 3.7z" />
						<path id="&lt;Path&gt;" class="s47" d="m794.5 708.6c-12.3 43.1 1.3 96.2-2.4 107.2c-3.7 11.1-7.4 30.9-58 39.5c-50.5 8.6-85.1-8.6-90-27.1c-1.5-5.7-0.7-12.6 0.9-20.3c37.3 37.2 80-81.2 63.2-121.5c-18-43.2-45.6-32.1-65.1-6.8c1.6-5.7 3.9-11.3 7.2-16.6q13.5-22.2 61.6-38.3c30.8-13.5 50.6-3.7 60.4 3.7c9.9 7.4 34.6 37 22.2 80.2z" />
						<path id="&lt;Path&gt;" class="s43" d="m669.7 638.3q6.5-2.8 18.5-7.4q12-4.6 46.2-20.3q5.6 7.4 8.3 9.2c2.8 1.9 1 25-31.4 29.6q-32.4 4.6-45.3-3.7z" />
					</g>
				</g>
				<g id="&lt;Group&gt;">
					<g id="&lt;Group&gt;">
						<g id="&lt;Group&gt;">
							<g id="&lt;Group&gt;">
								<g id="&lt;Group&gt;">
									<path id="&lt;Path&gt;" class="s30" d="m711.2 1024.5l-15.7-9.1l58.7-9.6l15.6 9.1z" />
								</g>
								<g id="&lt;Group&gt;">
									<path id="&lt;Path&gt;" class="s31" d="m700.2 1030.9l-15.7-9.1l11-6.4l15.7 9.1z" />
								</g>
								<g id="&lt;Group&gt;">
									<path id="&lt;Path&gt;" class="s32" d="m642.2 1095.2l-15.6-9.1l-0.1-6.7l15.7 9.1z" />
								</g>
								<g id="&lt;Group&gt;">
									<path id="&lt;Path&gt;" class="s33" d="m642.2 1088.5l-15.7-9.1l58-57.6l15.7 9.1z" />
								</g>
								<g id="&lt;Group&gt;">
									<path id="&lt;Path&gt;" class="s34" d="m711.2 1024.5l58.6-9.6v6.6l-58.6 17.5l-11 6.4l-58 49.8v-6.7l58-57.6z" />
								</g>
							</g>
						</g>
						<g id="&lt;Group&gt;">
							<g id="&lt;Group&gt;">
								<g id="&lt;Group&gt;">
									<path id="&lt;Path&gt;" class="s30" d="m624 1014.9l15.7-9.1l58.6 9.6l-15.6 9.1z" />
								</g>
								<g id="&lt;Group&gt;">
									<path id="&lt;Path&gt;" class="s31" d="m682.7 1024.5l15.6-9.1l11.1 6.4l-15.7 9.1z" />
								</g>
								<g id="&lt;Group&gt;">
									<path id="&lt;Path&gt;" class="s32" d="m751.7 1088.5l15.6-9.1v6.7l-15.7 9.1z" />
								</g>
								<g id="&lt;Group&gt;">
									<path id="&lt;Path&gt;" class="s33" d="m693.7 1030.9l15.7-9.1l57.9 57.6l-15.6 9.1z" />
								</g>
								<g id="&lt;Group&gt;">
									<path id="&lt;Path&gt;" class="s34" d="m693.7 1030.9l58 57.6l-0.1 6.7l-57.9-49.8l-11.1-6.4l-58.6-17.5v-6.6l58.7 9.6z" />
								</g>
							</g>
						</g>
						<g id="&lt;Group&gt;">
							<g id="&lt;Group&gt;">
								<g id="&lt;Group&gt;">
									<path id="&lt;Path&gt;" class="s30" d="m624 1014.9l15.7-9.1l58.6 9.6l-15.6 9.1z" />
								</g>
								<g id="&lt;Group&gt;">
									<path id="&lt;Path&gt;" class="s31" d="m682.7 1024.5l15.6-9.1l11.1 6.4l-15.7 9.1z" />
								</g>
								<g id="&lt;Group&gt;">
									<path id="&lt;Path&gt;" class="s32" d="m751.7 1088.5l15.6-9.1v6.7l-15.7 9.1z" />
								</g>
								<g id="&lt;Group&gt;">
									<path id="&lt;Path&gt;" class="s33" d="m693.7 1030.9l15.7-9.1l57.9 57.6l-15.6 9.1z" />
								</g>
								<g id="&lt;Group&gt;">
									<path id="&lt;Path&gt;" class="s34" d="m693.7 1030.9l58 57.6l-0.1 6.7l-57.9-49.8l-11.1-6.4l-58.6-17.5v-6.6l58.7 9.6z" />
								</g>
							</g>
						</g>
						<g id="&lt;Group&gt;">
							<g id="&lt;Group&gt;">
								<g id="&lt;Group&gt;">
									<path id="&lt;Path&gt;" class="s35" d="m707.6 956.6l-0.2 65.9l-11.5 6.7l0.2-65.9z" />
								</g>
								<g id="&lt;Group&gt;">
									<path id="&lt;Path&gt;" class="s2" d="m696.1 963.3l-0.2 65.9l-11.6-6.7l0.2-65.9z" />
								</g>
								<g id="&lt;Group&gt;">
									<path id="&lt;Path&gt;" class="s36" d="m707.6 956.6l-11.5 6.7l-11.6-6.7l11.5-6.7z" />
								</g>
							</g>
						</g>
					</g>
					<path id="&lt;Path&gt;" class="s8" d="m863 824.8c1.8 49.4-25.4 95.3-69.6 117.4l-50.6 25.3c-37.8 18.9-82.5 17.6-119.1-3.5l-65.6-37.6c-4.1-2.4-7-6.5-7.8-11.2l-9.8-59c-2.2-13.4 12.1-23.3 23.8-16.4l61.3 36.1c8.9 5.3 20.5 0.7 23.4-9.3c9.8-34.7 29.9-104.1 36.1-116.5c6.5-13 107.9-49.7 152.1-65.2c10.1-3.6 20.8 3.7 21.2 14.4z" />
				</g>
				<g id="&lt;Group&gt;">
					<g id="&lt;Group&gt;">
						<path id="&lt;Path&gt;" class="s43" d="m605 697.6q48.4-33.9 57.7-34.1c11.2 0.1 24.7 4.9 27 20.9c2.3 16-7 27.2-15.7 31.1c-8.6 3.9-84.4 32.7-97.3 31.6c-12.9-1.1-20.3-12.9-10.8-26q9.5-13.1 39.1-23.5z" />
					</g>
					<path id="&lt;Path&gt;" class="s41" d="m674 715.5c-8.6 3.9-84.4 32.7-97.3 31.6c-8.4-0.7-14.4-6-15-13.1c6.2 0.7 16.7 1.7 23.2 0.7c9.6-1.4 51.9-16.3 80.2-27.4c15.2-6.1 21.6-16.6 24.2-25.1c0.1 0.7 0.3 1.4 0.4 2.2c2.3 16-7 27.2-15.7 31.1z" />
				</g>
				<g id="&lt;Group&gt;">
					<path id="&lt;Path&gt;" class="s25" d="m475.3 714.7q-11.8-2.2-16.3-4.8c-4.5-2.6-10.4-8.9-12.6-8.9c-2.3 0-8.9 2.2-10.4 1.4c-1.5-0.7 0-3.3 1.1-3.7c1.1-0.3 8.9-1.1 7.8-1.5c-1.1-0.3-9.3 1.9-10 0c-0.8-1.8 8.1-11.8 17.4-14.1c9.3-2.2 10.8 1.5 15.2 3.4q4.5 1.8 15.3 10q-0.8 15.2-7.5 18.2z" />
					<g id="&lt;Group&gt;">
						<path id="&lt;Path&gt;" class="s43" d="m590.5 733.8q-9.5 17.4-32.8 11.9c-23.3-5.6-79.5-28.4-85.3-30.1q-6.6-13.3 3.6-24.8q37.2 8.1 55.3 10.2c18.2 2.1 75.3 3.4 59.2 32.8z" />
						<path id="&lt;Path&gt;" class="s41" d="m586.7 738.6c-4.7 4.7-13.9 10.6-29 7.1c-23.3-5.6-79.5-28.4-85.3-30.1q-1.2-2.4-1.8-6c22.6 8.7 79.3 29.3 116.1 29z" />
					</g>
				</g>
				<g id="&lt;Group&gt;">
					<path id="&lt;Path&gt;" class="s25" d="m698 512c11.4 1 28.2 13.8 32.2 30.2c3.9 16.3-3 35.6-8 46.5c-4.9 10.9-17.3 21.8-31.2 25.8c-13.8 3.9-31.6 8.4-36.1 3.9c-4.4-4.4-7.4-21.3-9.4-28.2c-2-6.9-0.5-14.9 3-22.3c3.4-7.4-4.5-13.8-3-25.7q1.5-11.9 11.4-18.8c15.3-11.9 29.7-12.4 41.1-11.4z" />
					<path id="&lt;Path&gt;" class="s48" d="m694 550.6c13.4 4.4 30.2-8.9 34.2-8.9c3.9 0 7.4 5.9 5.4 19.3q-2 13.4-13.4 34.6q-4.4 11.4-10.8 14.4c-16.9 4.9-29.7 6.4-31.7-3c-2-9.4-8.4-12.3-15.4-19.8c-6.9-7.4 2-16.3-1.5-23.2c-3.4-7-13.3-11.9-16.8-15.9q-5.4-12.9 5.5-21.8c7.9-1.9 31.1 19.8 44.5 24.3z" />
					<path id="&lt;Path&gt;" class="s49" d="m649.5 526.3q0.5-11.8 13.3-20.3c12.9-8.4 43.1-2.9 51 1q6 4 0.5 5q10.4 4.4 16.3 11.4c6 6.9 8 23.7 4 32.1c-4 8.5-25.7 13.4-37.6 10.9c-11.9-2.4-49-19.3-47.5-40.1z" />
					<path id="&lt;Path&gt;" class="s25" d="m664.3 581.9q2.1-8.2 6.9-3.7c4.7 4.5 2.1 15.6-1.1 16.7c-3.2 1.1-7.7-5-5.8-13z" />
				</g>
				<g id="&lt;Group&gt;">
					<path id="&lt;Path&gt;" class="s50" d="m740.3 369.6c7.6-4.4 13.7-0.9 13.8 7.8v27.5c0.1 8.7-6 19.3-13.6 23.7l-37.4 20.9l-6.1 17.6l-6.2-10.5l-105.6 61.6c-7.6 4.4-13.7 0.9-13.8-7.8v-27.5c-0.1-8.7 6.1-19.3 13.6-23.7z" />
				</g>
			</g>
			<g id="&lt;Group&gt;">
				<g id="&lt;Group&gt;">
					<g id="&lt;Group&gt;">
						<path id="&lt;Path&gt;" class="s43" d="m451.8 568.2l116.6 67.7l-82 47.4l-116.6-67.8z" />
					</g>
					<g id="&lt;Group&gt;">
						<g id="&lt;Group&gt;">
							<path id="&lt;Path&gt;" class="s20" d="m468.9 598.7l-18.4 10.6l-23.2-6.8c6.5-7.4 22.2-10.4 35-6.6c2.5 0.8 4.5 1.6 6.6 2.8z" />
						</g>
						<g id="&lt;Group&gt;">
							<path id="&lt;Path&gt;" class="s51" d="m473.1 600.1c12.3 7.1 12.4 18.6 0.1 25.7c-12.2 7.2-32.1 7.2-44.5 0c-9.8-5.7-12.1-13.9-5.9-21.1l28.1 8.3z" />
						</g>
					</g>
				</g>
				<g id="&lt;Group&gt;">
					<g id="&lt;Group&gt;">
						<path id="&lt;Path&gt;" class="s52" d="m610.8 635.6c2.3 1.3 2.3 3.4 0 4.7l-66.5 38.6c-2.3 1.3-5.9 1.3-8.2 0l-46.4-26.8c-2.3-1.3-2.3-3.4 0-4.7l66.5-38.7c2.2-1.3 5.9-1.3 8.2 0z" />
					</g>
					<g id="&lt;Group&gt;">
						<path id="&lt;Path&gt;" class="s6" d="m612.5 637.9v2.7q0 0 0 0.1q0 0 0 0.1q0 0.1 0 0.2q0 0 0 0q-0.1 0-0.1 0.1q0 0.1 0 0.2q0 0 0 0q-0.1 0.1-0.1 0.1q0 0.1-0.1 0.2q0 0 0 0q0 0.1 0 0.1q-0.1 0.1-0.2 0.2q0 0.1 0 0.1q0 0-0.1 0q-0.1 0.2-0.2 0.3q0 0-0.1 0.1q0 0 0 0q-0.1 0.1-0.2 0.1q-0.1 0.1-0.2 0.2q-0.1 0-0.2 0.1q0 0.1-0.1 0.1q0 0-0.1 0.1l-66.5 38.6q-0.4 0.2-0.8 0.4q-0.1 0-0.3 0.1q-0.1 0-0.2 0.1q-0.1 0-0.3 0q-0.3 0.1-0.6 0.2q-0.1 0-0.2 0q-0.2 0.1-0.5 0.1q-0.1 0-0.1 0q-0.1 0-0.1 0q-0.3 0.1-0.7 0.1q-0.1 0-0.2 0q-0.1 0-0.2 0q-0.1 0-0.2 0q-0.2 0-0.5-0.1q-0.1 0-0.2 0q-0.1 0-0.2 0q-0.1 0-0.2 0q-0.3-0.1-0.6-0.1q0 0-0.1-0.1q-0.1 0-0.2 0q-0.1 0-0.3-0.1q-0.2 0-0.5-0.1q0-0.1-0.1-0.1q0 0-0.1 0q-0.4-0.2-0.8-0.4l-46.4-26.8c-1-0.6-1.6-1.3-1.7-2.1q0-0.1 0-0.3v-2.7q0 0.4 0.1 0.7c0.2 0.6 0.7 1.2 1.6 1.7l46.4 26.8q0.4 0.3 0.9 0.4q0.1 0.1 0.1 0.1q0.4 0.1 0.8 0.2q0.1 0.1 0.2 0.1q0.5 0.1 0.9 0.1q0.1 0 0.2 0.1q0.5 0 0.9 0q0.1 0 0.2 0q0.5 0 1-0.1q0.1 0 0.1 0q0.4 0 0.7-0.1q0.3-0.1 0.6-0.1q0.3-0.1 0.6-0.2q0.1 0 0.2-0.1q0.4-0.2 0.8-0.4l66.5-38.6q0.2-0.1 0.3-0.1q0.1-0.1 0.2-0.2q0-0.1 0.1-0.1q0.1-0.1 0.2-0.2q0.1 0 0.1-0.1q0.1-0.1 0.2-0.2q0.1-0.1 0.1-0.1q0.1-0.1 0.2-0.2q0-0.1 0.1-0.2q0-0.1 0-0.1q0.1-0.1 0.1-0.2q0-0.1 0-0.2q0.1 0 0.1-0.1q0-0.1 0-0.2q0-0.1 0-0.2z" />
						<g id="&lt;Group&gt;">
							<path id="&lt;Path&gt;" class="s53" d="m604 636.4c0.7 0.4 0.7 1.1 0 1.5l-63.2 36.7c-0.7 0.4-1.9 0.4-2.6 0l-41.9-24.1c-0.7-0.4-0.7-1.1 0-1.6l63.2-36.7c0.7-0.4 1.9-0.4 2.6 0z" />
						</g>
					</g>
				</g>
				<g id="&lt;Group&gt;">
					<g id="&lt;Group&gt;">
						<g id="&lt;Group&gt;">
							<path id="&lt;Path&gt;" class="s7" d="m341 539.1l-52.4-30.4v-31.9l52.3 30.4z" />
						</g>
						<g id="&lt;Group&gt;">
							<path id="&lt;Path&gt;" class="s8" d="m340.9 507.2l-52.3-30.4l50.5-29.2l52.4 30.4z" />
						</g>
						<g id="&lt;Group&gt;">
							<path id="&lt;Path&gt;" class="s9" d="m391.5 478l0.1 31.9l-50.6 29.2l-0.1-31.9z" />
						</g>
					</g>
					<g id="&lt;Group&gt;">
						<g id="&lt;Group&gt;">
							<path id="&lt;Path&gt;" class="s10" d="m279 574.9l-52.3-30.4l-0.2-64.2l52.3 30.4z" />
						</g>
						<g id="&lt;Group&gt;">
							<path id="&lt;Path&gt;" class="s1" d="m278.8 510.7l-52.3-30.4l50.5-29.2l52.4 30.4z" />
						</g>
						<g id="&lt;Group&gt;">
							<path id="&lt;Path&gt;" class="s11" d="m329.4 481.5l0.2 64.2l-50.6 29.2l-0.2-64.2z" />
						</g>
					</g>
					<g id="&lt;Group&gt;">
						<g id="&lt;Group&gt;">
							<path id="&lt;Path&gt;" class="s12" d="m217.2 610.6l-52.3-30.4l-0.3-101.3l52.3 30.4z" />
						</g>
						<g id="&lt;Group&gt;">
							<path id="&lt;Path&gt;" class="s50" d="m216.9 509.3l-52.3-30.4l50.5-29.2l52.4 30.4z" />
						</g>
						<g id="&lt;Group&gt;">
							<path id="&lt;Path&gt;" class="s13" d="m267.5 480.1l0.3 101.3l-50.6 29.2l-0.3-101.3z" />
						</g>
					</g>
				</g>
				<g id="&lt;Group&gt;">
					<g id="&lt;Group&gt;">
						<path id="&lt;Path&gt;" class="s51" d="m366.8 645l-0.8 12.1q0 0.1 0 0.1c0 0.2 0.8 0.5 0.7 0.7c0 0.1 0.7 0.2 0.7 0.4q0 0 0 0.1q-0.1 0.1-0.1 0.1q-0.1 0.3-0.3 0.6q-0.1 0.2-0.2 0.4q0 0.1-0.1 0.1q-0.1 0.1-0.1 0.2q-0.3 0.4-0.7 0.8q-0.1 0-0.1 0c-0.2 0.2-0.5 0.4-0.8 0.6c-0.2 0.2-0.4 0.3-0.6 0.4q0 0.1-0.1 0.1l-104.4 60.7c-0.7 0.4-1.4 0.7-2.2 1q-0.1 0-0.3 0.1c-0.2 0-0.4 0.1-0.6 0.1q-0.5 0.2-1.1 0.3q-0.2 0-0.4 0.1q-0.5 0.1-1 0.1q-0.1 0-0.3 0q-0.1 0-0.1 0c-0.4 0.1-0.9 0-1.3 0c-0.1 0-0.3-0.1-0.5-0.1q-0.1 0-0.3 0q-0.2 0-0.3 0c-0.4 0 0.5 0.3 0.5 0.2c0 0-1.2 0-1.3 0c-0.1 0-1.1 0-1.1 0c-0.2-0.1-0.4-0.1-0.6-0.1c-0.3 0-1-0.1-1.3-0.2c-0.1 0-0.7 0-0.8-0.1c-0.1 0-1.2 0-1.3 0c-0.2-0.1 0.4-0.1-2.6-0.2c0-0.1 1.3-0.2 1-0.3c-0.1 0 1.8-0.1 1.7-0.1q0 0-0.1 0q-0.8-0.4-1.6-0.8l-67.3-38.9c-2.2-1.2-3.3-2.9-3.3-4.6v-12.1c0 1.7 1.1 3.4 3.4 4.6l67.2 38.9q0.8 0.4 1.7 0.7c0.1 0.1 0.2 0 0.3 0.1c0.5 0.2 1 0.2 1.6 0.4c0.1 0 0.2-0.2 0.3-0.2c0.6 0.2 1.2-0.1 1.8 0c0.1 0 0.2-0.8 0.3-0.8c0.6 0.1 1.2-1.5 1.9-1.5q0.1 0 0.3 0c0.6 0 1.2 1.6 1.8 1.5c0.2 0 0.3 1.5 0.4 1.5q0.7-0.1 1.3-0.2q0.6-0.1 1.2-0.3q0.4-0.1 0.8-0.2c0.8-0.3 1.6-0.6 2.2-1l104.4-60.7c0.3-0.1 0.5-0.3 0.7-0.5c0.3-0.2 0.6-0.4 0.8-0.6q0.6-0.5 0.9-1q0.1-0.1 0.1-0.1q0.4-0.6 0.6-1.1q0-0.1 0-0.1c0.1-0.4-0.6-0.8-0.6-1.2z" />
						<g id="&lt;Group&gt;">
							<path id="&lt;Path&gt;" class="s43" d="m364.3 640.4c4.4 2.5 4.4 6.7 0 9.2l-104.4 60.7c-4.4 2.5-11.5 2.5-15.9 0l-67.2-38.9c-4.4-2.5-4.5-6.6-0.1-9.2l104.4-60.6c4.4-2.6 11.5-2.6 15.9-0.1z" />
						</g>
					</g>
					<g id="&lt;Group&gt;">
						<path id="&lt;Path&gt;" class="s13" d="m275.5 633.2l-0.1 13l-7.2 6.3h-6.5v-14.4z" />
						<g id="&lt;Group&gt;">
							<path id="&lt;Path&gt;" class="s54" d="m275.4 644.9l-0.1 18.3l-12.2 7.2v-18.9z" />
						</g>
						<path id="&lt;Path&gt;" class="s12" d="m263.2 640.3l-0.1 19.3c-0.9-0.5-1.8-1-2.8-1.4q-1.2-0.4-2.4-0.8q-1-0.2-2-0.5q-1-0.2-1.9-0.3q-1-0.1-1.9-0.2q-1-0.1-1.9-0.1q-1 0-2 0q-1.1 0-2.2 0.1q-1.2 0.2-2.5 0.4q-1.9 0.3-3.6 0.9q-2.3 0.7-4.3 1.9q-0.1 0-0.2 0.1q-1.5 0.9-2.5 1.8q-0.7 0.7-1.2 1.3q-0.5 0.6-0.8 1.2q-0.3 0.5-0.5 1.1q-0.2 0.5-0.3 1.1q-0.1 0.6-0.1 1.1q0 0.1 0 0.2v-19.3q0-0.1 0-0.2q0-0.6 0.1-1.1q0.1-0.6 0.4-1.1q0.2-0.6 0.5-1.1q0.3-0.6 0.8-1.2q0.5-0.6 1.2-1.3q1-0.9 2.4-1.8q0.1-0.1 0.3-0.1q1.9-1.2 4.2-1.9q1.8-0.6 3.7-0.9q1.2-0.2 2.5-0.4q1-0.1 2.1-0.1q1 0 2 0q1 0 1.9 0.1q1 0.1 1.9 0.2q1 0.1 1.9 0.3q1.1 0.2 2.1 0.5c0.8 0.3 1.7 0.6 2.4 0.9q1.5 0.5 2.8 1.3z" />
						<g id="&lt;Clip Group&gt;" clip-path="url(#cp1)">
							<g id="&lt;Group&gt;">
								<path id="&lt;Path&gt;" class="s10" d="m268.9 659.1l-0.1 8.5c0-2.9-1.9 5-5.7 2.8v-19.4c3.9 2.3 5.8 5.2 5.8 8.1z" />
							</g>
							<path id="&lt;Path&gt;" class="s55" d="m268.9 659.1l-0.1 8.5c0-2.9-1.9 5-5.7 2.8v-18.9c3.9 2.2 5.8 4.7 5.8 7.6z" />
						</g>
						<path id="&lt;Path&gt;" class="s11" d="m286.3 659.1l-0.1 8.5q0 0.2 0 0.4q0 1-0.3 2.1q-0.2 1-0.5 2.1q-0.4 1-1 2q-0.7 1.2-1.5 2.2q-1 1.3-2.3 2.5q-2 1.8-4.7 3.4q-0.2 0.2-0.4 0.3v-8.5q0.3-0.2 0.5-0.3q2.7-1.6 4.7-3.4q1.3-1.2 2.2-2.5q0.9-1.1 1.5-2.2q0.6-1 1-2.1q0.4-1 0.6-2.1q0.2-1 0.2-2.1q0.1-0.1 0.1-0.3z" />
						<g id="&lt;Group&gt;">
							<path id="&lt;Path&gt;" class="s1" d="m275.4 644.9c14.4 8.3 14.5 20.9 0.1 29.2l-12.3-7.1c7.6-4.4 7.5-11.1-0.1-15.5z" />
						</g>
						<g id="&lt;Group&gt;">
							<path id="&lt;Path&gt;" class="s56" d="m275.6 669.8l-0.1 12.8l-12.3-7.1v-2z" />
						</g>
						<g id="&lt;Clip Group&gt;" clip-path="url(#cp2)">
							<path id="&lt;Path&gt;" class="s9" d="m275.6 669.8l-0.1 12.8c-2.5 1.5-5.3 2.7-8.2 3.6q-3.3 1.1-6.8 1.7q-2.4 0.4-4.7 0.7q-2.1 0.2-4.1 0.2q-1.1 0.1-2.2 0.1l0.1-12.8q1.1 0 2.1-0.1q2.1 0 4.1-0.2q2.4-0.3 4.7-0.7q3.5-0.6 6.8-1.7c3-0.9 5.8-2.1 8.3-3.6z" />
						</g>
						<g id="&lt;Group&gt;">
							<path id="&lt;Path&gt;" class="s57" d="m249.6 676.1l-0.1 12.8l-0.1-10.1l0.1-13.4z" />
						</g>
						<g id="&lt;Group&gt;">
							<path id="&lt;Path&gt;" class="s8" d="m275.6 669.8c-7.2 4.2-16.6 6.3-26 6.3l-0.1-10.1c5 0 9.9-1.1 13.7-3.3z" />
						</g>
						<g id="&lt;Clip Group&gt;" clip-path="url(#cp3)">
							<path id="&lt;Path&gt;" class="s12" d="m249.6 669l-0.1 19.9q-0.8 0-1.6-0.1q-1.8 0-3.6-0.2q-1.8-0.1-3.6-0.4q-1.8-0.2-3.6-0.6q-2-0.4-3.9-0.9q-2.3-0.7-4.4-1.5q-2.8-1.1-5.4-2.6c-7.2-4.2-10.8-10.2-10.8-15.7v-19.4c0 5.5 3.6 11 10.9 15.2q2.5 1.5 5.3 2.6q2.2 0.8 4.5 1.5q1.9 0.5 3.8 0.9q1.8 0.4 3.7 0.7q1.7 0.2 3.5 0.4q1.8 0.1 3.7 0.2q0.8 0 1.6 0z" />
						</g>
						<g id="&lt;Group&gt;">
							<path id="&lt;Path&gt;" class="s50" d="m275.5 633.2l-12.3 7.1c-7.6-4.4-20-4.4-27.5 0c-7.6 4.4-7.6 11.5 0 15.9c3.9 2.2 8.8 3.3 13.8 3.3l0.1 10c-9.5 0-18.9-2-26.1-6.2c-14.4-8.3-14.5-21.8-0.2-30.2c14.4-8.3 37.7-8.2 52.2 0.1z" />
						</g>
					</g>
					<g id="&lt;Group&gt;">
						<g id="&lt;Group&gt;">
							<g id="&lt;Group&gt;">
								<path id="&lt;Path&gt;" class="s58" d="m342.9 646.8c1.1 0.6 1.1 1.5 0.1 2.1c-1.1 0.6-2.7 0.6-3.7 0l-52-30c-1.1-0.6-1.1-1.6-0.1-2.2c1.1-0.6 2.7-0.6 3.7 0z" />
							</g>
						</g>
						<g id="&lt;Group&gt;">
							<path id="&lt;Path&gt;" class="s58" d="m307 633c1 0.5 1 1.5 0 2.1c-1 0.6-2.7 0.6-3.7 0l-22.1-12.8c-1-0.5-1-1.5 0.1-2.1c0.9-0.6 2.6-0.6 3.6 0z" />
						</g>
						<g id="&lt;Group&gt;">
							<path id="&lt;Path&gt;" class="s58" d="m313.8 643.4c1.1 0.6 1.1 1.6 0.1 2.2c-1 0.6-2.7 0.5-3.7 0l-34.6-20c-1-0.6-1-1.5 0-2.1c1-0.6 2.7-0.6 3.7 0z" />
						</g>
					</g>
				</g>
				<g id="&lt;Group&gt;">
					<g id="&lt;Clip Group&gt;" clip-path="url(#cp4)">
						<g id="&lt;Group&gt;">
							<path id="&lt;Path&gt;" class="s2" d="m510.8 498.3l-0.1 3.2q-0.5-1.2-0.5-2.3v-3.2q0 1.1 0.6 2.3z" />
						</g>
					</g>
					<path id="&lt;Path&gt;" class="s35" d="m461.8 495.8v3.2q0 0 0 0.1q0 0.1 0 0.3q0 0.2-0.1 0.4q0 0.1 0 0.1q0 0.1-0.1 0.3q0 0.2-0.1 0.5q0 0 0 0.1q-0.1 0.1-0.1 0.2q-0.1 0.3-0.3 0.5q0 0.1-0.1 0.2q-0.1 0.2-0.2 0.4v-3.2q0.2-0.3 0.3-0.6q0.2-0.3 0.3-0.5q0-0.2 0.1-0.4q0.1-0.2 0.1-0.5q0.1-0.1 0.1-0.3q0.1-0.2 0.1-0.4q0-0.2 0-0.4z" />
					<path id="&lt;Path&gt;" class="s11" d="m538.8 499.1v3.2q0 0.1 0 0.2q0 0.1 0 0.2q-0.1 0.2-0.1 0.4q0 0.1 0 0.1q0 0.1-0.1 0.2q0 0.2-0.1 0.4q0 0.1 0 0.1q0 0.1-0.1 0.2q-0.1 0.2-0.2 0.4q0 0 0 0.1q-0.1 0.1-0.1 0.2q-0.1 0.2-0.3 0.4q0 0-0.1 0.1q0 0.1-0.1 0.1q-0.2 0.3-0.5 0.5q0 0.1-0.1 0.2q0 0 0 0q-0.2 0.1-0.3 0.2q-0.2 0.2-0.4 0.3q-0.1 0.1-0.3 0.2q-0.2 0.2-0.4 0.3q0 0-0.1 0q-0.5 0.4-1.2 0.6q-0.2 0.1-0.4 0.2q-0.4 0.2-0.8 0.3q0 0-0.1 0q-0.1 0.1-0.3 0.1q-0.5 0.2-1 0.3q-0.2 0-0.4 0.1q-0.2 0-0.3 0q-0.3 0.1-0.6 0.1q-0.3 0.1-0.7 0.1q-0.2 0-0.3 0q-0.3 0.1-0.7 0.1q-0.2 0-0.5 0q-0.1 0-0.2 0q-0.5 0-1.1 0q-0.1 0-0.3 0q0 0 0 0q-0.7 0-1.5 0q0 0 0-0.1q-0.3 0-0.5 0q-0.5 0-1-0.1q-0.1 0-0.3-0.1v-3.2q0.6 0.1 1.3 0.2q0.2 0 0.5 0q0.8 0.1 1.5 0.1q0.2 0 0.3 0q0.7 0 1.3 0q0.3 0 0.6 0q0.4-0.1 0.9-0.1q0.4-0.1 0.8-0.1q0.4-0.1 0.8-0.2q0.2 0 0.4 0q0.5-0.2 1-0.3q0.2-0.1 0.3-0.1q0.5-0.1 0.9-0.3q0.2-0.1 0.4-0.2q0.7-0.3 1.2-0.6q0.3-0.1 0.5-0.3q0.2-0.1 0.3-0.2q0.2-0.2 0.4-0.3q0.1-0.1 0.3-0.2q0.1-0.1 0.1-0.2q0.3-0.2 0.5-0.5q0.1-0.1 0.2-0.3q0.2-0.2 0.3-0.4q0.1-0.1 0.1-0.2q0.1-0.2 0.2-0.4q0.1-0.2 0.1-0.3q0.1-0.2 0.1-0.4q0.1-0.1 0.1-0.3q0.1-0.2 0.1-0.5q0-0.1 0-0.3z" />
					<path id="&lt;Path&gt;" class="s11" d="m450.4 504.9v3.2q-0.5 0.2-1 0.2q-0.2 0.1-0.4 0.1q-0.6 0.1-1.1 0.2q-0.3 0-0.5 0q-0.2 0-0.5 0.1q-0.3 0-0.7 0q-0.2 0-0.5 0q-0.3 0-0.6 0q-0.3 0-0.5 0q-0.2 0-0.3 0q-0.6 0-1.3 0q0 0 0 0q-0.2-0.1-0.3-0.1q-0.4 0-0.9-0.1q-0.2 0-0.4 0q-0.2-0.1-0.4-0.1q-0.2 0-0.3-0.1q-0.6-0.1-1.1-0.2q-0.1 0-0.1-0.1q0 0 0 0q-0.7-0.2-1.4-0.4q0 0-0.1-0.1q-0.1 0-0.2 0q-0.6-0.3-1.2-0.7c-2.3-1.2-3.4-3-3.4-4.8l0.1-3.2c0 1.8 1 3.5 3.3 4.8q0.6 0.4 1.3 0.6q0 0.1 0.1 0.1q0.7 0.3 1.5 0.5q0 0 0.1 0q0.7 0.2 1.4 0.4q0.2 0 0.4 0q0.6 0.1 1.3 0.2q0.2 0 0.3 0q0.8 0.1 1.6 0.1q0.2 0 0.5 0q0.6 0 1.1 0q0.4 0 0.7-0.1q0.5 0 1-0.1q0.5 0 1.1-0.1q0.7-0.1 1.4-0.3z" />
					<g id="&lt;Group&gt;">
						<path id="&lt;Path&gt;" class="s11" d="m547.8 519.7v3.2l-24.4 14.2v-3.2z" />
					</g>
					<g id="&lt;Group&gt;">
						<path id="&lt;Path&gt;" class="s11" d="m450.2 534.2v3.3l-25.2-14.6v-3.2z" />
					</g>
					<path id="&lt;Path&gt;" class="s11" d="m539 540.3v3.3q0 0 0 0.1q0 0.2 0 0.5q0 0.1-0.1 0.3q0 0 0 0q0 0.3-0.1 0.5q-0.1 0.2-0.1 0.3q0 0 0 0.1q-0.1 0.1-0.2 0.3q-0.1 0.3-0.2 0.5q0 0.1 0 0.1q-0.3 0.3-0.5 0.7q-0.1 0.1-0.1 0.1q-0.1 0.1-0.1 0.2q-0.3 0.3-0.6 0.6q0 0.1-0.1 0.1q-0.2 0.2-0.4 0.5q-0.2 0.1-0.3 0.2q-0.1 0.1-0.1 0.1q-0.5 0.4-0.9 0.7q-0.1 0.1-0.2 0.1q-0.4 0.3-0.9 0.6q-0.1 0.1-0.2 0.1q-0.5 0.3-1.1 0.6q-0.2 0.1-0.3 0.2q-0.4 0.2-0.8 0.3q-0.2 0.1-0.5 0.2q-0.3 0.2-0.7 0.3q-0.2 0.1-0.5 0.1q-0.1 0.1-0.2 0.1q-0.2 0.1-0.3 0.1q-0.5 0.2-1 0.3q-0.3 0.1-0.6 0.1q-0.4 0.2-0.9 0.2q-0.2 0.1-0.4 0.1q-0.1 0-0.1 0q-0.9 0.2-1.8 0.3q-0.1 0-0.1 0q-0.2 0-0.4 0q-0.5 0.1-1 0.1q-0.1 0-0.2 0q-0.2 0-0.4 0q-0.4 0-0.8 0q-0.1 0-0.2 0q-0.2 0-0.4 0q-0.4 0-0.7 0q-0.1 0-0.2 0q-0.3-0.1-0.5-0.1q-0.2 0-0.5-0.1q-0.1 0-0.2 0q-0.3 0-0.5-0.1q-0.3 0-0.6-0.1q0 0-0.1 0q-0.2 0-0.5-0.1q-0.3-0.1-0.6-0.1q0-0.1-0.1-0.1q-0.2 0-0.3-0.1q-0.4-0.1-0.8-0.3q-0.1 0-0.3 0q-0.1-0.1-0.3-0.2q-0.2-0.1-0.3-0.1q-0.5-0.2-0.9-0.5c-2.2-1.3-3.3-3-3.3-4.8v-3.3c0 1.9 1.1 3.6 3.3 4.9q0.4 0.2 0.9 0.5q0.1 0 0.3 0.1q0.3 0.1 0.6 0.2q0.4 0.2 0.8 0.3q0.2 0.1 0.4 0.1q0.3 0.1 0.7 0.2q0.3 0.1 0.6 0.1q0.2 0.1 0.5 0.1q0.3 0.1 0.7 0.1q0.3 0.1 0.5 0.1q0.4 0 0.7 0q0.3 0.1 0.7 0.1q0.3 0 0.6 0q0.4 0 0.8 0q0.3 0 0.6 0q0.5 0 1-0.1q0.3 0 0.5 0q0.9-0.1 1.8-0.3q0.2 0 0.5-0.1q0.5-0.1 1-0.2q0.2-0.1 0.5-0.1q0.5-0.1 1-0.3q0.3-0.1 0.6-0.2q0.2 0 0.4-0.1q0.4-0.2 0.8-0.3q0.2-0.1 0.4-0.2q0.4-0.2 0.8-0.3q0.1-0.1 0.3-0.2q0.6-0.3 1.1-0.6q0.6-0.3 1.1-0.7q0.1-0.1 0.2-0.1q0.5-0.4 0.9-0.7q0-0.1 0.1-0.1q0.4-0.4 0.7-0.7q0.1-0.1 0.1-0.1q0.4-0.4 0.7-0.8q0-0.1 0.1-0.1q0.3-0.4 0.5-0.8q0.1-0.3 0.2-0.5q0.1-0.2 0.2-0.4q0-0.1 0.1-0.3q0.1-0.3 0.1-0.6q0.1-0.1 0.1-0.3q0-0.3 0-0.6z" />
					<g id="&lt;Group&gt;">
						<path id="&lt;Path&gt;" class="s11" d="m477.9 534.5v3.2c0-2.3-1.8-4.8-5.2-6.8q-0.6-0.4-1.3-0.7q-0.2-0.1-0.4-0.2q-0.4-0.2-0.9-0.4q-0.4-0.1-0.9-0.3q-0.1-0.1-0.2-0.1q-0.6-0.2-1.2-0.4q-0.8-0.2-1.6-0.4q-0.3 0-0.5-0.1q-0.5-0.1-1-0.1q-0.3-0.1-0.6-0.1q-0.4-0.1-0.9-0.1q-0.3 0-0.6-0.1q-0.4 0-0.7 0q-0.4 0-0.7 0q-0.4 0-0.7 0q-0.3 0-0.7 0q-0.4 0-0.8 0.1q-0.2 0-0.5 0q-0.6 0.1-1.1 0.2q-0.2 0-0.4 0q-0.2 0.1-0.4 0.1q-0.3 0.1-0.7 0.2q-0.2 0-0.5 0.1q-0.3 0.1-0.6 0.2q-0.4 0.1-0.8 0.3q-0.2 0.1-0.4 0.1q-0.5 0.3-1 0.6q-0.3 0.1-0.5 0.3q-0.2 0.1-0.3 0.2q-0.2 0.2-0.4 0.3q-0.2 0.1-0.3 0.2q-0.1 0.1-0.1 0.2q-0.3 0.2-0.5 0.5q-0.1 0.1-0.2 0.3q-0.2 0.2-0.3 0.4q-0.1 0.1-0.1 0.2q-0.1 0.2-0.2 0.4q-0.1 0.2-0.1 0.3q-0.1 0.2-0.1 0.4q-0.1 0.1-0.1 0.3q0 0.2-0.1 0.5q0 0.1 0 0.3v-3.3q0 0 0-0.1q0-0.1 0-0.2q0.1-0.2 0.1-0.4q0-0.1 0-0.1q0-0.1 0.1-0.2q0-0.2 0.1-0.4q0-0.1 0-0.1q0.1-0.1 0.1-0.2q0.1-0.2 0.2-0.4q0-0.1 0-0.1q0.1-0.1 0.1-0.2q0.1-0.2 0.3-0.3q0-0.1 0.1-0.2q0-0.1 0.1-0.1q0.2-0.3 0.5-0.5q0-0.1 0.1-0.1q0-0.1 0-0.1q0.2-0.1 0.3-0.2q0.2-0.2 0.4-0.3q0.1-0.1 0.3-0.2q0.2-0.1 0.3-0.3q0.1 0 0.2 0q0.5-0.3 1.1-0.6q0.1-0.1 0.3-0.1q0.4-0.2 0.8-0.3q0.1-0.1 0.2-0.1q0.2-0.1 0.5-0.1q0.2-0.1 0.4-0.1q0.4-0.1 0.8-0.2q0.2-0.1 0.3-0.1q0.1 0 0.1 0q0.2 0 0.3-0.1q0.5 0 1.1-0.1q0.1 0 0.2 0q0.2 0 0.4-0.1q0.4 0 0.8 0q0.1 0 0.2 0q0.2 0 0.4 0q0.3 0 0.7 0q0.2 0 0.3 0q0.2 0 0.4 0q0.3 0 0.7 0q0.2 0 0.4 0q0.1 0.1 0.3 0.1q0.4 0 0.8 0.1q0.2 0 0.3 0q0.2 0 0.3 0q0.5 0.1 1 0.2q0.2 0.1 0.4 0.1q0 0 0.1 0q0.8 0.2 1.6 0.4q0 0 0 0q0.6 0.2 1.2 0.4q0.1 0 0.2 0.1q0.4 0.1 0.8 0.3q0.1 0 0.1 0q0.5 0.2 0.9 0.4q0.2 0.1 0.5 0.2q0.6 0.3 1.2 0.6c3.4 2 5.2 4.6 5.2 6.9z" />
						<g id="&lt;Group&gt;">
							<path id="&lt;Path&gt;" class="s11" d="m511 541.1v3.2l-24.4 14.2v-3.2z" />
						</g>
						<g id="&lt;Group&gt;">
							<path id="&lt;Path&gt;" class="s1" d="m533.6 492.3c6.1 3.5 6.9 8.7 1.9 11.6c-3.1 1.8-7.7 2.3-12.2 1.6l24.5 14.2l-24.4 14.2c4.5-0.7 9.2-0.2 12.3 1.6c5.1 2.9 4.3 8.1-1.8 11.6c-6.1 3.5-15.1 4-20.1 1.1c-3.1-1.8-4-4.5-2.8-7.1l-24.4 14.2l-25.2-14.6c4.8 1 9.9 0.5 13.2-1.4c5.1-2.9 4.2-8.1-1.9-11.7c-6.1-3.5-15.1-4-20.1-1c-3.4 1.9-4.1 4.9-2.4 7.6l-25.2-14.5l25.4-14.8c-5 1.1-10.4 0.7-13.8-1.3c-5.1-2.9-4.3-8.1 1.8-11.6c6-3.6 15-4 20.1-1.1c3.5 2 4.2 5.1 2.3 8l25.4-14.8l24.6 14.2c-1.3-2.6-0.4-5.3 2.7-7.1c5-2.9 14-2.4 20.1 1.1z" />
						</g>
						<g id="&lt;Group&gt;">
							<path id="&lt;Path&gt;" class="s11" d="m486.6 555.3v3.2l-25.2-14.6v-3.2z" />
						</g>
					</g>
				</g>
			</g>
		</g>
	</g>
</svg>